<svg width="32" height="32" viewBox="0 0 32 32" fill="none" xmlns="http://www.w3.org/2000/svg">
<path opacity="0.2" d="M3 12.1123H29V23.9998C29 24.265 28.8946 24.5194 28.7071 24.7069C28.5196 24.8944 28.2652 24.9998 28 24.9998H4C3.73478 24.9998 3.48043 24.8944 3.29289 24.7069C3.10536 24.5194 3 24.265 3 23.9998V12.1123Z" fill="#BC1E2D"/>
<path d="M28 7H4C3.44772 7 3 7.44772 3 8V24C3 24.5523 3.44772 25 4 25H28C28.5523 25 29 24.5523 29 24V8C29 7.44772 28.5523 7 28 7Z" stroke="#BC1E2D" stroke-width="2" stroke-linecap="round" stroke-linejoin="round"/>
<path d="M21 21H25" stroke="#BC1E2D" stroke-width="2" stroke-linecap="round" stroke-linejoin="round"/>
<path d="M15 21H17" stroke="#BC1E2D" stroke-width="2" stroke-linecap="round" stroke-linejoin="round"/>
<path d="M3 12.1123H29" stroke="#BC1E2D" stroke-width="2" stroke-linecap="round" stroke-linejoin="round"/>
</svg>
