<svg width="36" height="33" viewBox="0 0 36 33" fill="none" xmlns="http://www.w3.org/2000/svg">
<path d="M18 16.5L9.45 10.6219C9.31108 10.5251 9.19825 10.4004 9.12023 10.2574C9.04221 10.1144 9.00108 9.9568 9 9.79688V5.15625C9 4.88275 9.11853 4.62044 9.32951 4.42705C9.54048 4.23365 9.82663 4.125 10.125 4.125H25.875C26.1734 4.125 26.4595 4.23365 26.6705 4.42705C26.8815 4.62044 27 4.88275 27 5.15625V9.74531C26.9989 9.90523 26.9578 10.0628 26.8798 10.2058C26.8017 10.3489 26.6889 10.4736 26.55 10.5703L18 16.5Z" stroke="#BC1E2D" stroke-width="1.5" stroke-linecap="round" stroke-linejoin="round"/>
<path d="M18 16.5L9.45 22.3781C9.31108 22.4749 9.19825 22.5996 9.12023 22.7426C9.04221 22.8856 9.00108 23.0432 9 23.2031V27.8438C9 28.1173 9.11853 28.3796 9.32951 28.573C9.54048 28.7664 9.82663 28.875 10.125 28.875H25.875C26.1734 28.875 26.4595 28.7664 26.6705 28.573C26.8815 28.3796 27 28.1173 27 27.8438V23.2547C26.9989 23.0948 26.9578 22.9372 26.8798 22.7942C26.8017 22.6511 26.6889 22.5264 26.55 22.4297L18 16.5Z" stroke="#BC1E2D" stroke-width="1.5" stroke-linecap="round" stroke-linejoin="round"/>
<path d="M9 8.25H27" stroke="#BC1E2D" stroke-width="1.5" stroke-linecap="round" stroke-linejoin="round"/>
</svg>
