<svg width="393" height="373" viewBox="0 0 393 373" fill="none" xmlns="http://www.w3.org/2000/svg">
<path d="M393 285.271H0V285.457H393V285.271Z" fill="#BC1E2D"/>
<path d="M353.621 297.273H336.581V297.46H353.621V297.273Z" fill="#BC1E2D"/>
<path d="M270.911 293.409H244.1V293.596H270.911V293.409Z" fill="#BC1E2D"/>
<path d="M346.72 290.351H311.72V290.537H346.72V290.351Z" fill="#BC1E2D"/>
<path d="M135.994 294.11H127.238V294.297H135.994V294.11Z" fill="#BC1E2D"/>
<path d="M120.234 294.11H90.0599V294.297H120.234V294.11Z" fill="#BC1E2D"/>
<path d="M73.8918 290.963H52.1196V291.149H73.8918V290.963Z" fill="#BC1E2D"/>
<path d="M169.831 149.857L170.185 140.054L163.849 138.085C163.577 134.763 163.009 131.469 162.152 128.237L167.528 124.507L163.881 115.302L157.231 115.809C155.655 112.843 153.814 110.011 151.729 107.342L155.172 101.889L148.098 94.7197L142.156 97.6067C139.484 95.4389 136.629 93.4828 133.62 91.7581L134.579 85.4917L125.147 81.4335L120.824 86.2377C117.489 85.2252 114.071 84.4766 110.606 83.9997L109.034 77.8601L98.6743 77.5244L96.6307 83.5446C93.1341 83.8055 89.6664 84.342 86.2634 85.1485L82.2705 80.0757L72.5713 83.5148L73.1058 89.826C69.9824 91.3451 66.9983 93.1093 64.1847 95.1002L58.3997 91.7581L50.8148 98.4721L53.8566 104.142C51.572 106.665 49.5208 109.371 47.7258 112.228L41.1313 111.288L36.824 120.24L41.9173 124.336C40.8429 127.499 40.054 130.744 39.5593 134.034L33.0119 135.593L32.6582 145.395L39.0248 147.365C39.2882 150.685 39.8536 153.977 40.7147 157.205L35.3385 160.935L38.9934 170.148L45.6429 169.64C47.2155 172.609 49.0564 175.442 51.1449 178.108L47.6944 183.561L54.7684 190.73L60.7105 187.843C63.3756 190.01 66.2254 191.964 69.2308 193.684L68.2404 199.943L77.6724 204.009L82.019 199.204C85.3539 200.226 88.7713 200.987 92.237 201.48L93.809 207.619L104.168 207.955L106.212 201.935C109.711 201.671 113.181 201.134 116.587 200.331L120.517 205.404L130.217 201.965L129.713 195.654C132.831 194.125 135.814 192.361 138.635 190.379L144.349 193.647L151.934 186.933L148.892 181.263C151.177 178.74 153.228 176.035 155.023 173.177L161.617 174.116L165.925 165.164L160.831 161.061C161.924 157.901 162.726 154.656 163.229 151.363L169.831 149.857ZM100.042 181.614C91.9367 181.354 84.0947 178.818 77.508 174.328C70.9213 169.837 65.8857 163.593 63.0384 156.386C60.191 149.179 59.6598 141.332 61.5118 133.839C63.3638 126.345 67.516 119.541 73.443 114.287C79.37 109.033 86.8055 105.566 94.8091 104.323C102.813 103.081 111.025 104.12 118.406 107.308C125.788 110.495 132.008 115.69 136.278 122.233C140.549 128.776 142.679 136.375 142.4 144.068C142.026 154.377 137.355 164.124 129.412 171.165C121.468 178.205 110.904 181.964 100.042 181.614Z" fill="#BC1E2D"/>
<path d="M346.626 117.436L349.228 115.131L348.198 113.184C348.983 112.311 349.691 111.378 350.312 110.394L352.592 110.714L354.062 107.626L352.317 106.216C352.692 105.124 352.969 104.003 353.142 102.867L355.382 102.337L355.492 98.95L353.307 98.2786C353.211 97.1316 353.017 95.9939 352.725 94.8769L354.572 93.5714L353.315 90.4009L351.028 90.5724C350.476 89.5499 349.837 88.5719 349.118 87.6481L350.304 85.7831L347.86 83.3064L345.816 84.2986C344.896 83.5548 343.913 82.8837 342.877 82.2918L343.207 80.1284L339.961 78.7185L338.467 80.3821C337.315 80.0414 336.134 79.7919 334.938 79.6361L334.38 77.5174L330.812 77.3906L330.096 79.4794C328.893 79.5668 327.699 79.7514 326.528 80.0315L325.16 78.2784L321.812 79.4645L322.001 81.6428C320.92 82.1612 319.889 82.7678 318.92 83.4556L316.939 82.3291L314.329 84.6343L315.343 86.5366C314.552 87.4065 313.842 88.34 313.221 89.3266L310.949 89.0058L309.472 92.0943L311.225 93.5117C310.861 94.602 310.598 95.7203 310.439 96.8538L308.191 97.3834L308.081 100.77L310.274 101.442C310.363 102.589 310.555 103.727 310.847 104.843L308.992 106.141L310.25 109.312L312.545 109.148C313.097 110.17 313.735 111.148 314.455 112.072L313.268 113.937L315.713 116.414L317.756 115.422C318.675 116.168 319.658 116.839 320.696 117.428L320.358 119.584L323.612 120.994L325.105 119.338C326.259 119.675 327.439 119.925 328.634 120.084L329.193 122.203L332.761 122.33L333.476 120.241C334.68 120.154 335.874 119.969 337.045 119.689L338.412 121.442L341.761 120.256L341.58 118.077C342.657 117.558 343.686 116.952 344.653 116.265L346.626 117.436ZM328.061 103.165C327.374 102.467 326.922 101.591 326.76 100.649C326.598 99.7066 326.734 98.7398 327.151 97.8709C327.568 97.002 328.247 96.27 329.102 95.7676C329.958 95.2651 330.951 95.0147 331.957 95.0482C332.962 95.0816 333.934 95.3972 334.751 95.9552C335.567 96.5133 336.191 97.2885 336.543 98.183C336.895 99.0774 336.959 100.051 336.728 100.98C336.497 101.909 335.981 102.753 335.245 103.404C334.756 103.841 334.181 104.182 333.553 104.407C332.925 104.631 332.256 104.736 331.585 104.714C330.913 104.691 330.254 104.543 329.643 104.277C329.033 104.011 328.485 103.633 328.029 103.165H328.061Z" fill="#BC1E2D"/>
<path d="M251.52 218.086L243.393 212.752C242.596 209.974 241.5 207.282 240.123 204.718L242.206 196.959L230.416 184.978L222.116 186.418C219.512 184.938 216.754 183.715 213.886 182.77L208.84 174.706L191.548 174.146L185.936 181.86C183.013 182.616 180.179 183.653 177.479 184.956L169.304 182.979L156.681 194.169L158.198 202.032C156.64 204.508 155.354 207.131 154.363 209.858L145.866 214.647L145.276 231.059L153.411 236.385C154.195 239.178 155.288 241.884 156.673 244.457L154.567 252.148L166.357 264.129L174.602 262.697C177.226 264.179 180.001 265.404 182.886 266.352L187.925 274.401L205.217 274.968L210.821 267.255C213.77 266.499 216.63 265.459 219.357 264.151L227.484 266.121L240.115 254.931L238.598 247.068C240.161 244.591 241.447 241.966 242.434 239.235L250.93 234.446L251.52 218.086ZM197.718 242.995C193.879 242.87 190.166 241.668 187.047 239.541C183.928 237.413 181.543 234.455 180.195 231.042C178.847 227.628 178.596 223.912 179.473 220.362C180.35 216.813 182.316 213.591 185.123 211.102C187.93 208.613 191.451 206.97 195.242 206.381C199.032 205.791 202.922 206.282 206.418 207.79C209.915 209.299 212.862 211.758 214.887 214.856C216.911 217.954 217.923 221.552 217.793 225.195C217.612 230.082 215.396 234.701 211.631 238.038C207.866 241.375 202.859 243.158 197.71 242.995H197.718Z" fill="#BC1E2D"/>
<path d="M270.03 171.58H269.975L256.362 171.14C256.086 171.135 255.816 171.064 255.577 170.934C255.338 170.804 255.137 170.618 254.994 170.394L251.324 164.538C249.345 163.851 247.431 163.008 245.601 162.017L239.73 162.979C239.456 163.026 239.175 163.008 238.911 162.924C238.647 162.841 238.41 162.695 238.221 162.501L228.923 153.057C228.727 152.861 228.589 152.621 228.52 152.36C228.451 152.099 228.454 151.825 228.53 151.565L230.015 146.037C229.095 144.246 228.342 142.381 227.767 140.465L221.849 136.585C221.619 136.436 221.433 136.234 221.308 135.998C221.183 135.761 221.123 135.499 221.133 135.235L221.597 122.314C221.606 122.054 221.683 121.799 221.82 121.573C221.957 121.346 222.15 121.155 222.383 121.016L228.569 117.533C229.282 115.659 230.169 113.849 231.218 112.124L230.133 106.507C230.082 106.246 230.102 105.977 230.19 105.726C230.278 105.474 230.431 105.247 230.636 105.067L240.587 96.2492C240.792 96.0633 241.045 95.9307 241.32 95.8641C241.596 95.7975 241.884 95.7991 242.159 95.8687L248.007 97.2861C249.889 96.4122 251.848 95.6958 253.862 95.1451L257.949 89.5277C258.101 89.3046 258.313 89.124 258.564 89.0047C258.814 88.8853 259.093 88.8316 259.372 88.8489L272.978 89.2965C273.254 89.302 273.525 89.3732 273.765 89.5035C274.006 89.6338 274.208 89.8191 274.353 90.0425L278.024 95.906C279.988 96.5905 281.887 97.4341 283.699 98.4275L289.641 97.3906C289.915 97.3423 290.197 97.3609 290.461 97.4444C290.724 97.5279 290.962 97.6737 291.15 97.868L300.448 107.312C300.642 107.509 300.78 107.749 300.849 108.01C300.918 108.271 300.915 108.544 300.841 108.804L299.348 114.347C300.269 116.135 301.026 117.994 301.612 119.905L307.522 123.784C307.752 123.934 307.938 124.136 308.063 124.372C308.188 124.608 308.248 124.87 308.238 125.134L307.774 138.048C307.765 138.309 307.688 138.565 307.551 138.793C307.414 139.02 307.221 139.213 306.988 139.353L300.802 142.837C300.084 144.706 299.198 146.513 298.153 148.238L299.238 153.863C299.289 154.122 299.269 154.39 299.181 154.641C299.093 154.891 298.94 155.116 298.735 155.295L288.721 164.12C288.515 164.305 288.262 164.437 287.987 164.502C287.712 164.568 287.423 164.565 287.149 164.493L281.333 163.083C279.438 163.953 277.468 164.67 275.446 165.224L271.398 170.834C271.252 171.056 271.051 171.24 270.812 171.37C270.574 171.5 270.305 171.572 270.03 171.58ZM257.384 168.022L269.174 168.402L273.104 163.039C273.321 162.726 273.655 162.502 274.039 162.412C276.251 161.838 278.397 161.056 280.445 160.077C280.802 159.914 281.208 159.874 281.592 159.965L287.094 161.3L295.74 153.654L294.75 148.26C294.674 147.883 294.746 147.493 294.954 147.164C296.122 145.316 297.083 143.359 297.823 141.323C297.948 140.953 298.211 140.64 298.562 140.442L304.481 137.115L304.882 125.925L299.222 122.195C298.924 122.002 298.701 121.722 298.586 121.397C298.586 121.36 298.586 121.315 298.586 121.27C297.98 119.208 297.159 117.209 296.133 115.302C295.952 114.961 295.907 114.568 296.008 114.198L297.422 108.916L289.366 100.71L283.715 101.695C283.32 101.763 282.913 101.694 282.567 101.501C280.617 100.391 278.552 99.4734 276.405 98.7632C276.282 98.7257 276.163 98.6757 276.051 98.614C275.825 98.4798 275.636 98.2955 275.501 98.0769L271.956 92.4446L260.166 92.0567L256.236 97.4353C256.002 97.7507 255.656 97.9757 255.261 98.0694C253.072 98.6372 250.95 99.4145 248.926 100.39C248.569 100.562 248.158 100.605 247.771 100.509L242.206 99.1661L233.56 106.813L234.597 112.161C234.659 112.499 234.607 112.846 234.448 113.154L234.369 113.28C233.2 115.135 232.239 117.1 231.501 119.144C231.37 119.494 231.114 119.79 230.777 119.979L224.859 123.314L224.458 134.504L230.125 138.234C230.448 138.444 230.682 138.756 230.785 139.114C231.375 141.209 232.194 143.239 233.23 145.172C233.286 145.282 233.331 145.397 233.363 145.515C233.423 145.761 233.423 146.016 233.363 146.261L231.949 151.483L240.005 159.689L245.617 158.712C246.009 158.644 246.414 158.713 246.757 158.906C248.722 160.014 250.799 160.931 252.958 161.644C253.348 161.753 253.677 162.002 253.878 162.337L257.384 168.022ZM264.67 153.87C264.379 153.87 264.088 153.87 263.797 153.87C257.263 153.761 251.039 151.207 246.48 146.764C241.92 142.32 239.394 136.348 239.452 130.145C239.509 123.943 242.146 118.014 246.787 113.647C251.428 109.281 257.699 106.831 264.234 106.831C270.769 106.831 277.039 109.281 281.68 113.647C286.321 118.014 288.958 123.943 289.015 130.145C289.073 136.348 286.547 142.32 281.987 146.764C277.428 151.207 271.204 153.761 264.67 153.87ZM264.67 109.789C258.96 109.883 253.52 112.113 249.535 115.995C245.549 119.877 243.34 125.096 243.39 130.516C243.439 135.935 245.742 141.117 249.797 144.934C253.853 148.75 259.332 150.891 265.043 150.891C270.754 150.891 276.233 148.75 280.289 144.934C284.344 141.117 286.647 135.935 286.697 130.516C286.746 125.096 284.537 119.877 280.552 115.995C276.566 112.113 271.126 109.883 265.416 109.789H264.67Z" fill="#BC1E2D"/>
<path d="M301.384 78.5688L295.74 77.1365L294.231 71.7802L296.44 69.6914L298.766 74.2644L303.592 76.48L301.384 78.5688Z" fill="#BC1E2D"/>
<path d="M301.73 74.9881C301.974 74.7564 302.167 74.4813 302.3 74.1786C302.432 73.8759 302.5 73.5514 302.5 73.2238C302.5 72.8961 302.432 72.5717 302.3 72.269C302.167 71.9662 301.974 71.6912 301.73 71.4595C301.486 71.2278 301.196 71.044 300.877 70.9186C300.558 70.7932 300.216 70.7287 299.871 70.7287C299.526 70.7287 299.184 70.7932 298.865 70.9186C298.546 71.044 298.256 71.2278 298.012 71.4595L300.818 67.4609L304.575 69.2663L305.4 72.9963L301.73 74.9881Z" fill="#BC1E2D"/>
<path d="M295.992 70.1242L300.126 66.2002L305.754 67.6251L307.271 72.9739L303.137 76.8978L297.501 75.4581L295.992 70.1242ZM303.498 73.332C303.866 72.9824 304.117 72.537 304.218 72.0523C304.319 71.5676 304.267 71.0653 304.068 70.6088C303.868 70.1523 303.531 69.7621 303.098 69.4876C302.665 69.2131 302.156 69.0666 301.635 69.0666C301.115 69.0666 300.606 69.2131 300.173 69.4876C299.74 69.7621 299.402 70.1523 299.203 70.6088C299.004 71.0653 298.951 71.5676 299.053 72.0523C299.154 72.537 299.405 72.9824 299.773 73.332C300.27 73.7956 300.941 74.054 301.639 74.0512C302.336 74.0484 303.004 73.7846 303.498 73.317V73.332Z" fill="#FCDEDE"/>
<path d="M70.9129 221.346L73.939 220.57L74.7486 217.698L73.5696 216.579L72.3199 219.033L69.7261 220.22L70.9129 221.346Z" fill="#BC1E2D"/>
<path d="M70.7399 219.422C70.5034 219.165 70.3785 218.833 70.3904 218.493C70.4023 218.152 70.5501 217.828 70.804 217.588C71.0578 217.347 71.3987 217.206 71.7575 217.195C72.1164 217.184 72.4663 217.302 72.7364 217.527L71.2351 215.386L69.1679 216.341L68.7278 218.355L70.7399 219.422Z" fill="#BC1E2D"/>
<path d="M73.8055 216.803L71.589 214.699L68.5629 215.445L67.7769 218.317L69.9541 220.443L72.9802 219.697L73.8055 216.803ZM69.7812 218.526C69.6354 218.405 69.5175 218.257 69.4345 218.091C69.3516 217.925 69.3055 217.744 69.2991 217.56C69.2927 217.377 69.3261 217.194 69.3972 217.023C69.4684 216.852 69.5758 216.696 69.7127 216.566C69.8497 216.436 70.0133 216.335 70.1934 216.267C70.3736 216.199 70.5664 216.168 70.76 216.174C70.9536 216.18 71.1438 216.224 71.3188 216.302C71.4939 216.381 71.65 216.493 71.7776 216.631C72.0141 216.888 72.1391 217.22 72.1272 217.56C72.1153 217.901 71.9674 218.224 71.7136 218.465C71.4597 218.706 71.1188 218.847 70.76 218.858C70.4012 218.869 70.0513 218.751 69.7812 218.526Z" fill="#FCDEDE"/>
<path d="M60.019 63.9022L62.5342 66.2894C62.8488 66.5828 63.2722 66.7472 63.7132 66.7472C64.1543 66.7472 64.5777 66.5828 64.8922 66.2894C65.1995 65.9899 65.3715 65.5884 65.3715 65.1704C65.3715 64.7524 65.1995 64.3509 64.8922 64.0514L62.3849 61.6716C62.0694 61.38 61.6463 61.2168 61.2059 61.2168C60.7655 61.2168 60.3424 61.38 60.0269 61.6716C59.7191 61.9689 59.5459 62.3686 59.5444 62.7854C59.543 63.2022 59.7133 63.603 60.019 63.9022Z" fill="#FCDEDE"/>
<path d="M58.2505 57.9719C58.9069 57.7987 59.6022 57.8112 60.2512 58.0078C60.9001 58.2044 61.4745 58.5766 61.9037 59.0787C62.3329 59.5808 62.5983 60.1909 62.6673 60.8341C62.7363 61.4774 62.6059 62.1257 62.292 62.6996C61.9782 63.2735 61.4946 63.7479 60.9007 64.0645C60.3068 64.3812 59.6284 64.5264 58.9487 64.4822C58.2691 64.4381 57.6178 64.2065 57.0749 63.816C56.532 63.4254 56.121 62.8929 55.8925 62.2838C55.7475 61.8538 55.6934 61.4008 55.7336 60.9509C55.7737 60.501 55.9072 60.063 56.1263 59.6623C56.3455 59.2615 56.646 58.9058 57.0106 58.6157C57.3751 58.3256 57.7965 58.1068 58.2505 57.9719Z" fill="#BC1E2D"/>
<path d="M55.5151 61.8848L55.8792 62.8467L63.3503 60.2994L62.9863 59.3375L55.5151 61.8848Z" fill="#FCDEDE"/>
<path d="M196.5 318.96C280.667 318.96 348.898 315.179 348.898 310.515C348.898 305.851 280.667 302.07 196.5 302.07C112.333 302.07 44.1025 305.851 44.1025 310.515C44.1025 315.179 112.333 318.96 196.5 318.96Z" fill="#FCDEDE"/>
<path d="M174.846 227.411C175.938 210.701 173.934 180.316 207.032 184.344C242.504 188.649 232.357 228.023 232.357 228.023L174.846 227.411Z" fill="#8F3535"/>
<path d="M197.687 217.37C205.665 217.37 212.133 211.231 212.133 203.659C212.133 196.086 205.665 189.947 197.687 189.947C189.708 189.947 183.24 196.086 183.24 203.659C183.24 211.231 189.708 217.37 197.687 217.37Z" fill="white"/>
<path d="M199.589 189.969C192.743 188.865 185.441 193.647 184.71 198.496L211.835 200.868C210.876 195.34 205.012 190.849 199.589 189.969Z" fill="#8F3535"/>
<path d="M208.746 203.315C208.549 206.904 206.49 209.716 204.148 209.597C201.805 209.477 200.061 206.486 200.218 202.883C200.375 199.279 202.474 196.482 204.816 196.601C207.158 196.721 208.934 199.735 208.746 203.315Z" fill="#8F3535"/>
<path d="M197.687 218.116C194.674 218.116 191.729 217.268 189.224 215.68C186.719 214.091 184.767 211.833 183.614 209.191C182.461 206.55 182.159 203.643 182.747 200.838C183.335 198.034 184.785 195.458 186.916 193.436C189.046 191.414 191.76 190.037 194.715 189.479C197.67 188.921 200.733 189.207 203.516 190.302C206.299 191.396 208.679 193.249 210.352 195.627C212.026 198.004 212.919 200.799 212.919 203.659C212.915 207.492 211.309 211.167 208.453 213.877C205.598 216.588 201.725 218.112 197.687 218.116ZM197.687 190.701C194.985 190.701 192.343 191.461 190.097 192.886C187.85 194.311 186.099 196.337 185.065 198.706C184.032 201.076 183.761 203.683 184.289 206.198C184.817 208.714 186.119 211.024 188.03 212.837C189.941 214.65 192.376 215.884 195.027 216.383C197.677 216.883 200.424 216.625 202.92 215.643C205.416 214.66 207.549 212.997 209.049 210.864C210.549 208.731 211.349 206.223 211.347 203.659C211.343 200.222 209.902 196.927 207.341 194.498C204.78 192.068 201.308 190.703 197.687 190.701Z" fill="#EE5858"/>
<path opacity="0.3" d="M228.325 226.993H228.231C228.18 226.982 228.132 226.962 228.09 226.934C228.048 226.906 228.012 226.87 227.985 226.828C227.958 226.786 227.94 226.739 227.932 226.691C227.925 226.642 227.927 226.593 227.94 226.545C227.94 226.448 230.471 216.333 227.869 206.105C227.844 206.006 227.862 205.902 227.918 205.815C227.974 205.728 228.064 205.666 228.168 205.642C228.272 205.619 228.382 205.635 228.473 205.688C228.565 205.742 228.63 205.827 228.655 205.926C231.304 216.37 228.75 226.62 228.726 226.717C228.703 226.8 228.65 226.872 228.577 226.922C228.504 226.973 228.415 226.998 228.325 226.993Z" fill="white"/>
<path opacity="0.3" d="M226.132 200.496C226.057 200.495 225.983 200.474 225.919 200.436C225.855 200.398 225.804 200.344 225.771 200.279C224.794 198.23 223.541 196.309 222.045 194.565C221.98 194.489 221.949 194.391 221.959 194.293C221.97 194.195 222.02 194.105 222.1 194.043C222.14 194.011 222.186 193.987 222.236 193.973C222.286 193.958 222.339 193.953 222.391 193.958C222.443 193.963 222.493 193.977 222.539 194.001C222.585 194.024 222.625 194.056 222.658 194.095C224.191 195.89 225.478 197.863 226.486 199.966C226.508 200.01 226.521 200.058 226.524 200.107C226.526 200.155 226.519 200.204 226.501 200.25C226.483 200.296 226.456 200.338 226.421 200.374C226.386 200.41 226.344 200.438 226.297 200.458C226.245 200.481 226.189 200.494 226.132 200.496Z" fill="white"/>
<path d="M101.182 305.801H100.891C99.8487 305.773 98.8606 305.354 98.1443 304.635C97.4279 303.916 97.0418 302.956 97.071 301.967C97.1002 300.977 97.5422 300.04 98.2999 299.36C99.0575 298.68 100.069 298.313 101.111 298.341H101.182C103.453 298.341 108.916 295.723 120.344 278.624C120.648 278.17 121.051 277.784 121.526 277.491C122.002 277.199 122.538 277.008 123.099 276.93C123.66 276.853 124.231 276.892 124.775 277.044C125.318 277.196 125.82 277.458 126.247 277.811C135.222 285.134 145.011 291.507 155.439 296.819C155.922 297.027 156.355 297.326 156.713 297.698C157.071 298.069 157.346 298.505 157.521 298.98C157.696 299.455 157.769 299.959 157.734 300.461C157.699 300.963 157.557 301.453 157.317 301.902C157.077 302.351 156.744 302.749 156.338 303.072C155.932 303.396 155.461 303.638 154.953 303.784C154.446 303.93 153.913 303.977 153.386 303.922C152.859 303.868 152.349 303.713 151.887 303.466C142.194 298.578 133.032 292.796 124.534 286.204C114.953 299.893 107.847 305.801 101.182 305.801Z" fill="#8F3535"/>
<path d="M125.501 277.14H125.163C124.545 277.055 123.988 276.741 123.614 276.267C123.24 275.793 123.079 275.197 123.166 274.611C123.724 270.881 123.033 256.983 118.073 246.166C117.853 245.688 117.816 245.152 117.968 244.651C118.12 244.149 118.452 243.714 118.906 243.421C129.674 236.46 152.61 235.625 153.584 235.595C153.894 235.585 154.203 235.633 154.493 235.737C154.783 235.84 155.048 235.997 155.275 236.198C155.501 236.399 155.683 236.64 155.811 236.908C155.939 237.175 156.011 237.464 156.021 237.758C156.031 238.052 155.98 238.345 155.872 238.621C155.763 238.896 155.598 239.148 155.386 239.363C155.174 239.577 154.92 239.751 154.638 239.872C154.356 239.994 154.051 240.061 153.742 240.071C153.529 240.071 133.478 240.817 123.182 246.188C127.568 256.96 128.566 270.381 127.835 275.237C127.75 275.767 127.468 276.251 127.04 276.6C126.611 276.949 126.065 277.14 125.501 277.14Z" fill="#8F3535"/>
<path d="M129.462 274.244C127.89 270.731 120.816 271.126 116.674 274.14C114.457 275.744 111.455 280.585 111.172 282.346C111.077 282.764 111.092 283.198 111.213 283.61C111.334 284.022 111.559 284.4 111.869 284.711C112.178 285.022 112.562 285.257 112.989 285.396C113.415 285.535 113.87 285.574 114.316 285.509C117.027 285.285 120.745 281.548 120.745 281.548C118.269 283.853 121.468 285.479 126.247 282.145C128.857 280.287 131.215 278.176 129.462 274.244Z" fill="#EE5858"/>
<path d="M264.654 228.396C264.618 228.404 264.58 228.404 264.544 228.396C264.494 228.383 264.447 228.361 264.406 228.33C264.365 228.3 264.331 228.262 264.306 228.219C264.282 228.176 264.266 228.128 264.261 228.079C264.256 228.03 264.261 227.981 264.277 227.934C265.322 224.472 266.462 222.361 267.963 221.22C267.728 220.417 267.772 219.564 268.089 218.788C268.455 217.881 269.102 217.101 269.944 216.55C269.715 216.315 269.552 216.029 269.471 215.718C269.39 215.408 269.393 215.083 269.48 214.774C269.765 213.84 270.353 213.014 271.162 212.417C270.87 212.107 270.711 211.706 270.714 211.29C270.714 209.052 275.045 205.68 279.957 205.039C280.062 205.025 280.167 205.051 280.251 205.111C280.335 205.171 280.391 205.261 280.405 205.36C280.42 205.458 280.393 205.559 280.329 205.639C280.266 205.718 280.172 205.771 280.067 205.785C275.399 206.389 271.484 209.597 271.5 211.29C271.498 211.543 271.6 211.786 271.783 211.969C272.84 211.289 274.03 210.815 275.282 210.575C276.535 210.336 277.825 210.335 279.077 210.574C281.49 211.014 282.473 211.499 282.363 212.193C282.143 213.498 277.01 213.774 273.567 213.387C272.951 213.333 272.35 213.169 271.799 212.902C271.058 213.402 270.506 214.117 270.227 214.938C270.159 215.156 270.16 215.387 270.228 215.604C270.297 215.821 270.43 216.015 270.612 216.162C272.074 215.416 274.125 215.147 276.837 215.714C280.398 216.46 280.531 216.87 280.618 217.117C280.645 217.204 280.648 217.296 280.624 217.384C280.6 217.472 280.552 217.552 280.484 217.616C279.737 218.362 274.275 218.012 271.532 217.37C271.2 217.298 270.881 217.186 270.58 217.034C269.769 217.503 269.144 218.214 268.804 219.056C268.577 219.601 268.515 220.195 268.623 220.772C268.763 220.692 268.908 220.62 269.056 220.556C270.683 219.81 272.648 219.944 275.076 220.929C276.648 221.578 277.434 222.159 277.513 222.749C277.516 222.9 277.477 223.049 277.398 223.181C277.319 223.312 277.204 223.421 277.065 223.495C275.862 224.241 271.665 224.136 269.48 223.032C268.978 222.773 268.559 222.389 268.27 221.921C266.988 223.04 265.951 225.032 265.008 228.157C264.979 228.225 264.931 228.284 264.868 228.326C264.805 228.368 264.731 228.393 264.654 228.396ZM268.914 221.436C269.133 221.822 269.466 222.138 269.873 222.346C271.649 223.241 275.139 223.443 276.444 222.943C276.711 222.838 276.751 222.756 276.751 222.756C276.751 222.756 276.711 222.339 274.786 221.555C272.585 220.66 270.856 220.533 269.417 221.167C269.244 221.247 269.076 221.336 268.914 221.436ZM271.539 216.535L271.736 216.587C274.295 217.147 276.93 217.335 279.549 217.146C278.62 216.819 277.662 216.57 276.688 216.4C274.995 215.965 273.205 216.012 271.539 216.535ZM272.53 212.342C272.893 212.466 273.27 212.546 273.654 212.581C277.584 213.021 281.034 212.506 281.514 212.036C281.38 211.924 280.853 211.604 278.904 211.253C276.711 210.838 274.433 211.227 272.53 212.342Z" fill="#8F3535"/>
<path d="M162.332 304.555C162.851 304.399 162.678 303.921 162.097 303.921H151.454C131.191 301.885 117.035 304.615 125.956 305.256C134.877 305.898 125.328 305.764 118.812 308.106C112.296 310.449 167.269 311.038 172.26 308.106C176.85 305.406 155.148 306.741 162.332 304.555Z" fill="#8F3535"/>
<path d="M238.527 307.531L145.937 304.614L142.093 219.406L251.433 221.726L238.527 307.531Z" fill="#EE5858"/>
<path d="M174.846 305.898C174.747 305.898 174.651 305.863 174.578 305.799C174.505 305.736 174.461 305.648 174.453 305.555L167.033 219.974C167.026 219.875 167.06 219.778 167.128 219.703C167.195 219.628 167.291 219.58 167.394 219.571C167.498 219.566 167.599 219.599 167.678 219.663C167.757 219.727 167.807 219.816 167.819 219.914L175.278 305.495C175.282 305.544 175.276 305.593 175.26 305.64C175.245 305.687 175.219 305.73 175.185 305.768C175.152 305.805 175.111 305.836 175.065 305.858C175.018 305.881 174.968 305.894 174.916 305.898H174.846Z" fill="#8F3535"/>
<path d="M238.527 307.531L263.412 303.936L271.249 224.703L251.433 221.727L238.527 307.531Z" fill="#EE5858"/>
<path opacity="0.2" d="M238.527 307.531L263.412 303.936L271.249 224.703L251.433 221.727L238.527 307.531Z" fill="#191C1F"/>
<path d="M153.844 288.195L151.564 237.564C151.508 236.313 151.723 235.065 152.195 233.896C152.668 232.727 153.388 231.663 154.311 230.768C155.234 229.874 156.34 229.169 157.562 228.697C158.783 228.224 160.094 227.995 161.413 228.023L230.628 229.515C231.991 229.544 233.332 229.847 234.562 230.404C235.793 230.961 236.885 231.759 237.766 232.746C238.648 233.733 239.299 234.886 239.677 236.13C240.055 237.373 240.15 238.678 239.958 239.959L232.287 290.94C231.955 293.173 230.766 295.211 228.949 296.664C227.131 298.116 224.813 298.881 222.438 298.811L163.181 296.946C160.749 296.874 158.435 295.933 156.703 294.31C154.971 292.687 153.95 290.503 153.844 288.195Z" fill="#8F3535"/>
<path d="M161.326 243.562L172.032 243.882L171.945 246.501L165.241 246.299L165.178 248.254L171.395 248.44L171.309 250.947L165.091 250.753L165.013 253.177L171.906 253.386L171.812 256.161L160.91 255.833L161.326 243.562Z" fill="white"/>
<path d="M174.02 256.229L174.429 243.957L181.094 244.158C182.05 244.154 183.001 244.285 183.916 244.546C184.565 244.753 185.12 245.163 185.488 245.71C185.761 246.108 185.945 246.556 186.028 247.025C186.111 247.493 186.092 247.973 185.971 248.434C185.85 248.896 185.63 249.328 185.325 249.705C185.02 250.082 184.637 250.396 184.199 250.626C183.752 250.845 183.272 250.996 182.776 251.074C183.142 251.186 183.489 251.346 183.806 251.551C184.035 251.753 184.241 251.979 184.419 252.223C184.622 252.455 184.801 252.705 184.954 252.969L186.769 256.587L182.258 256.445L180.246 252.633C180.086 252.269 179.851 251.939 179.554 251.663C179.272 251.47 178.935 251.36 178.587 251.35H178.233L178.068 256.326L174.02 256.229ZM178.281 249.052L179.963 249.104C180.32 249.084 180.674 249.036 181.024 248.963C181.287 248.925 181.525 248.794 181.692 248.597C181.862 248.398 181.958 248.152 181.967 247.896C181.982 247.725 181.956 247.554 181.892 247.394C181.829 247.234 181.728 247.089 181.597 246.971C181.159 246.702 180.641 246.574 180.12 246.605L178.359 246.553L178.281 249.052Z" fill="white"/>
<path d="M188.074 256.624L188.483 244.353L195.14 244.554C196.096 244.549 197.047 244.679 197.962 244.942C198.612 245.146 199.167 245.557 199.534 246.106C199.933 246.703 200.12 247.407 200.068 248.112C200.071 248.708 199.903 249.293 199.583 249.805C199.264 250.317 198.804 250.738 198.253 251.022C197.805 251.239 197.326 251.39 196.83 251.469C197.193 251.581 197.537 251.741 197.852 251.947C198.087 252.143 198.295 252.366 198.473 252.611C198.674 252.844 198.853 253.094 199.007 253.357L200.823 256.967L196.311 256.833L194.299 253.021C194.138 252.658 193.903 252.328 193.607 252.051C193.327 251.85 192.985 251.74 192.633 251.738H192.287L192.114 256.721L188.074 256.624ZM192.326 249.448L194.016 249.492C194.374 249.48 194.729 249.435 195.077 249.358C195.339 249.321 195.575 249.19 195.737 248.993C195.914 248.797 196.011 248.549 196.013 248.291C196.03 248.121 196.006 247.95 195.943 247.79C195.881 247.629 195.781 247.485 195.651 247.366C195.213 247.091 194.69 246.962 194.165 247.001L192.413 246.949L192.326 249.448Z" fill="white"/>
<path d="M201.467 250.925C201.407 250.069 201.547 249.21 201.877 248.411C202.208 247.612 202.72 246.893 203.379 246.304C204.037 245.716 204.824 245.273 205.684 245.008C206.545 244.743 207.456 244.662 208.353 244.771C209.258 244.742 210.16 244.887 211.005 245.195C211.85 245.504 212.622 245.971 213.273 246.568C213.855 247.204 214.294 247.945 214.564 248.746C214.834 249.548 214.93 250.393 214.845 251.231C214.851 252.45 214.55 253.652 213.965 254.737C213.435 255.625 212.642 256.346 211.685 256.811C210.557 257.323 209.309 257.549 208.062 257.467C206.818 257.477 205.588 257.222 204.462 256.721C203.503 256.228 202.721 255.475 202.214 254.558C201.62 253.435 201.361 252.178 201.467 250.925ZM205.46 251.059C205.342 252 205.567 252.95 206.097 253.752C206.345 254.015 206.646 254.227 206.982 254.377C207.318 254.527 207.683 254.611 208.054 254.624C208.425 254.637 208.795 254.58 209.142 254.454C209.489 254.329 209.806 254.138 210.074 253.894C210.657 253.057 210.933 252.061 210.86 251.059C210.966 250.16 210.735 249.254 210.208 248.501C209.969 248.24 209.675 248.031 209.344 247.888C209.013 247.745 208.653 247.672 208.29 247.672C207.923 247.647 207.555 247.702 207.213 247.831C206.872 247.96 206.565 248.161 206.317 248.418C205.722 249.18 205.419 250.112 205.46 251.059Z" fill="white"/>
<path d="M216.865 257.527L217.274 245.248L223.931 245.449C224.887 245.448 225.837 245.579 226.753 245.837C227.4 246.047 227.954 246.457 228.325 247.001C228.722 247.6 228.909 248.302 228.86 249.008C228.863 249.605 228.696 250.191 228.377 250.705C228.057 251.218 227.596 251.64 227.044 251.925C226.595 252.136 226.115 252.284 225.621 252.365C225.985 252.478 226.329 252.642 226.643 252.85C226.878 253.046 227.087 253.269 227.264 253.514C227.466 253.746 227.645 253.996 227.798 254.26L229.614 257.878L225.103 257.744L223.09 253.924C222.93 253.562 222.695 253.235 222.399 252.962C222.117 252.761 221.776 252.649 221.424 252.641H221.078L220.905 257.624L216.865 257.527ZM221.117 250.343L222.807 250.395C223.165 250.383 223.52 250.338 223.868 250.261C224.129 250.221 224.364 250.091 224.529 249.896C224.714 249.688 224.812 249.422 224.804 249.15C224.821 248.981 224.797 248.81 224.734 248.651C224.672 248.492 224.572 248.349 224.442 248.232C224.004 247.956 223.481 247.828 222.957 247.867L221.204 247.814L221.117 250.343Z" fill="white"/>
<path d="M223.224 278.378C223.076 278.381 222.93 278.354 222.794 278.298C222.659 278.243 222.537 278.161 222.438 278.057L215.71 271.067L208.447 277.364C208.246 277.539 207.98 277.631 207.707 277.619C207.434 277.608 207.178 277.495 206.993 277.304L200.265 270.314L193.002 276.61C192.801 276.785 192.535 276.877 192.262 276.866C191.989 276.855 191.733 276.741 191.548 276.55L184.812 269.56L177.557 275.857C177.451 275.948 177.327 276.017 177.192 276.061C177.057 276.104 176.914 276.121 176.771 276.11C176.498 276.095 176.242 275.98 176.056 275.79L169.328 268.807L162.073 275.096C161.871 275.271 161.603 275.363 161.329 275.352C161.055 275.341 160.797 275.227 160.611 275.036C160.519 274.942 160.448 274.831 160.402 274.71C160.356 274.589 160.336 274.46 160.342 274.332C160.349 274.204 160.382 274.078 160.44 273.962C160.499 273.846 160.581 273.742 160.682 273.656L168.699 266.696C168.902 266.52 169.169 266.428 169.443 266.439C169.717 266.451 169.975 266.564 170.161 266.755L176.889 273.746L184.144 267.449C184.35 267.278 184.617 267.187 184.891 267.196C185.164 267.21 185.421 267.325 185.606 267.516L192.334 274.506L199.597 268.21C199.696 268.123 199.812 268.055 199.939 268.01C200.067 267.966 200.202 267.946 200.337 267.951C200.472 267.957 200.605 267.988 200.728 268.043C200.85 268.097 200.96 268.175 201.051 268.27L207.779 275.26L215.042 268.964C215.243 268.789 215.509 268.697 215.782 268.708C216.054 268.719 216.311 268.833 216.496 269.023L224.01 276.767C224.144 276.909 224.232 277.086 224.262 277.275C224.293 277.464 224.264 277.657 224.181 277.831C224.098 278.005 223.963 278.152 223.793 278.255C223.623 278.357 223.425 278.41 223.224 278.408V278.378Z" fill="white"/>
<path d="M98.8394 309.344L93.9191 307.113L89.5332 286.845L91.9148 284.36L98.8394 309.344Z" fill="#EE5858"/>
<path d="M98.8395 309.344L105.371 305.718L99.7748 289.023L91.9148 284.36L98.8395 309.344Z" fill="#EE5858"/>
<path opacity="0.2" d="M98.8395 309.344L105.371 305.718L99.7748 289.023L91.9148 284.36L98.8395 309.344Z" fill="#191C1F"/>
<path d="M205.932 313.029H205.39C204.347 313.003 203.359 312.584 202.642 311.866C201.925 311.147 201.538 310.188 201.566 309.199C201.594 308.209 202.035 307.271 202.792 306.591C203.549 305.91 204.56 305.543 205.602 305.569C211.654 305.756 224.466 302.227 231.791 295.483C232.234 295.072 232.772 294.765 233.363 294.588C245.774 291.052 250.388 298.191 250.577 298.497L243.817 302.294C243.841 302.342 243.87 302.387 243.904 302.429C243.833 302.332 242.072 300.191 236.476 301.504C227.288 309.456 213.187 313.029 205.932 313.029Z" fill="#8F3535"/>
<path d="M205.452 317.983L191.139 317.133L190.015 292.082L209.249 292.761L205.452 317.983Z" fill="#EE5858"/>
<path d="M205.453 317.983L208.801 314.82L210.876 299.206L209.249 292.761L205.453 317.983Z" fill="#EE5858"/>
<path opacity="0.2" d="M205.453 317.983L208.801 314.82L210.876 299.206L209.249 292.761L205.453 317.983Z" fill="#191C1F"/>
<path d="M288.391 308.501C287.877 308.501 287.378 308.341 286.969 308.046C278.794 302.153 267.751 291.687 263.514 281.593C263.451 281.447 263.406 281.294 263.381 281.138C261.313 269.471 259.341 244.92 259.254 243.883C259.231 243.589 259.269 243.294 259.366 243.014C259.463 242.734 259.617 242.475 259.82 242.251C260.229 241.8 260.81 241.522 261.435 241.477C262.061 241.432 262.679 241.626 263.154 242.014C263.63 242.402 263.923 242.954 263.97 243.547C263.97 243.793 265.99 268.583 268.002 280.153C272.231 289.971 283.722 300.049 289.837 304.48C290.231 304.764 290.521 305.158 290.666 305.606C290.811 306.055 290.804 306.535 290.646 306.979C290.488 307.424 290.187 307.81 289.785 308.083C289.383 308.356 288.901 308.502 288.407 308.501H288.391Z" fill="#8F3535"/>
<path d="M299.293 309.628C297.469 309.628 295.402 308.844 293.146 307.3C292.64 306.952 292.3 306.427 292.201 305.841C292.102 305.255 292.253 304.655 292.62 304.174C292.987 303.694 293.54 303.371 294.157 303.277C294.775 303.183 295.407 303.326 295.913 303.675C297.862 305.01 298.924 305.167 299.293 305.167C299.918 305.167 300.518 305.402 300.96 305.822C301.403 306.242 301.651 306.811 301.651 307.405C301.651 307.998 301.403 308.567 300.96 308.987C300.518 309.407 299.918 309.643 299.293 309.643V309.628Z" fill="#8F3535"/>
<path d="M293.807 307.233C296.33 300.124 306.674 301.526 310.242 302.586C313.29 303.425 316.214 304.629 318.943 306.166C320.869 307.36 320.9 309.367 318.33 310.508C315.186 311.911 307.2 310.665 307.2 310.665C311.319 312.373 307.2 315.141 299.961 312.425C297.611 311.545 292.919 309.844 293.807 307.233Z" fill="#EE5858"/>
<path d="M268.702 246.927C267.766 252.969 262.492 257.423 258.201 256.826C253.909 256.229 253.736 250.858 254.672 244.785C255.607 238.713 257.305 234.341 261.596 234.938C265.888 235.535 269.637 240.906 268.702 246.927Z" fill="#8F3535"/>
<path d="M164.966 222.831C165.322 222.831 165.61 222.557 165.61 222.219C165.61 221.881 165.322 221.607 164.966 221.607C164.61 221.607 164.321 221.881 164.321 222.219C164.321 222.557 164.61 222.831 164.966 222.831Z" fill="#8F3535"/>
<path d="M171.513 226.621C171.513 226.742 171.475 226.86 171.404 226.96C171.334 227.061 171.233 227.139 171.115 227.186C170.997 227.232 170.868 227.244 170.743 227.22C170.618 227.197 170.503 227.139 170.413 227.053C170.323 226.968 170.261 226.859 170.236 226.74C170.212 226.621 170.224 226.498 170.273 226.386C170.322 226.275 170.404 226.179 170.51 226.112C170.616 226.045 170.741 226.009 170.869 226.009C171.039 226.009 171.203 226.073 171.324 226.188C171.445 226.303 171.513 226.458 171.513 226.621Z" fill="#8F3535"/>
<path d="M172.236 298.908C172.236 299.029 172.198 299.147 172.127 299.247C172.057 299.348 171.956 299.426 171.838 299.473C171.72 299.519 171.591 299.531 171.466 299.508C171.341 299.484 171.226 299.426 171.136 299.34C171.046 299.255 170.984 299.146 170.959 299.027C170.935 298.908 170.947 298.785 170.996 298.674C171.045 298.562 171.127 298.466 171.233 298.399C171.339 298.332 171.464 298.296 171.592 298.296C171.762 298.296 171.926 298.36 172.047 298.475C172.168 298.59 172.236 298.745 172.236 298.908Z" fill="#8F3535"/>
<path d="M178.139 303.317C178.139 303.438 178.101 303.556 178.03 303.657C177.96 303.757 177.859 303.836 177.741 303.882C177.623 303.928 177.494 303.94 177.369 303.917C177.244 303.893 177.129 303.835 177.039 303.749C176.949 303.664 176.887 303.555 176.862 303.436C176.837 303.317 176.85 303.194 176.899 303.083C176.948 302.971 177.03 302.875 177.136 302.808C177.242 302.741 177.367 302.705 177.494 302.705C177.665 302.705 177.829 302.77 177.95 302.884C178.071 302.999 178.139 303.155 178.139 303.317Z" fill="#8F3535"/>
<path d="M64.8528 310.65C63.7213 310.599 62.616 310.309 61.6188 309.799C60.6216 309.288 59.7579 308.572 59.0914 307.703C59.0588 307.663 59.035 307.617 59.0216 307.568C59.0082 307.519 59.0055 307.468 59.0136 307.418C59.0216 307.368 59.0404 307.32 59.0686 307.277C59.0968 307.234 59.1339 307.197 59.1777 307.168C59.2215 307.139 59.271 307.119 59.3233 307.109C59.3755 307.099 59.4294 307.099 59.4816 307.109C59.5339 307.119 59.5833 307.14 59.6271 307.169C59.6708 307.198 59.7078 307.235 59.7359 307.278C61.2058 309.292 64.452 310.359 65.8668 309.725C66.0084 309.667 66.1347 309.581 66.2362 309.471C65.5213 309.172 64.8949 308.711 64.4124 308.128C63.9298 307.545 63.606 306.859 63.4694 306.129C63.2887 305.181 63.1472 303.891 63.9646 303.727C65.0965 303.488 66.5741 306.077 67.1086 308.039C67.2054 308.363 67.24 308.702 67.2108 309.038C67.6642 309.166 68.141 309.202 68.6099 309.143C68.8212 309.127 69.0268 309.07 69.2135 308.975C69.4003 308.88 69.5641 308.749 69.6946 308.591C69.1773 308.22 68.7482 307.75 68.4353 307.212C68.1224 306.673 67.9328 306.078 67.8789 305.465C67.5802 303.421 67.8082 303.07 68.044 302.891C68.1204 302.836 68.2115 302.801 68.3073 302.792C68.4031 302.783 68.4997 302.799 68.5863 302.839C69.4273 303.175 70.4413 306.069 70.6378 307.71C70.6613 307.881 70.6613 308.054 70.6378 308.225C70.9766 308.349 71.3359 308.414 71.6989 308.419C72.3654 308.444 73.0246 308.28 73.5931 307.949C73.4831 307.882 73.3809 307.807 73.2787 307.733C72.4927 307.069 72.1312 306.009 72.2726 304.503C72.3827 303.331 72.6578 302.69 73.153 302.488C73.3127 302.428 73.4877 302.412 73.6565 302.444C73.8254 302.476 73.9808 302.553 74.104 302.667C74.6346 303.223 75.0311 303.883 75.266 304.599C75.5008 305.315 75.5683 306.072 75.4638 306.815C75.3956 307.125 75.2589 307.417 75.0629 307.673C76.5092 307.912 78.5371 307.524 80.2898 307.114C80.3415 307.102 80.395 307.1 80.4474 307.108C80.4998 307.116 80.5501 307.133 80.5954 307.16C80.6406 307.186 80.68 307.22 80.7112 307.261C80.7424 307.302 80.7648 307.348 80.7772 307.397C80.7896 307.446 80.7917 307.497 80.7833 307.547C80.775 307.596 80.7565 307.644 80.7288 307.687C80.701 307.73 80.6646 307.767 80.6217 307.797C80.5788 307.827 80.5301 307.848 80.4785 307.86C78.3484 308.359 76.0533 308.77 74.4341 308.322C73.6438 308.892 72.6759 309.197 71.6831 309.187C71.2426 309.182 70.8064 309.104 70.3941 308.956C70.2112 309.225 69.9659 309.45 69.677 309.614C69.3881 309.778 69.0634 309.877 68.7278 309.904C68.137 309.976 67.5367 309.927 66.9671 309.762C66.7838 310.055 66.5092 310.287 66.1811 310.426C65.7596 310.587 65.3072 310.663 64.8528 310.65ZM64.1768 304.473C64.0681 304.98 64.0897 305.504 64.2397 306.002C64.3506 306.599 64.6114 307.161 65 307.641C65.3886 308.122 65.8935 308.506 66.472 308.762C66.461 308.585 66.4293 308.41 66.3776 308.24C65.7646 306.106 64.5856 304.637 64.1768 304.473ZM68.5549 303.824C68.56 304.338 68.6046 304.852 68.6885 305.36C68.7751 306.27 69.1984 307.121 69.8832 307.763C69.6898 306.385 69.24 305.052 68.5549 303.824ZM73.4988 303.175C73.4988 303.175 73.2001 303.316 73.0901 304.562C72.98 305.808 73.208 306.666 73.8211 307.166C73.9661 307.277 74.1244 307.372 74.2927 307.449C74.4994 307.239 74.6455 306.982 74.7171 306.703C74.8571 305.529 74.5229 304.348 73.7818 303.398C73.6167 303.205 73.5224 303.175 73.4988 303.175Z" fill="#8F3535"/>
<path d="M179.892 316.29L182.022 312.784L179.892 309.277H177.612L178.901 312.784L177.612 316.29H179.892Z" fill="#8F3535"/>
<path d="M177.762 314.611C177.499 314.627 177.236 314.591 176.988 314.507C176.74 314.422 176.513 314.291 176.321 314.12C176.129 313.949 175.976 313.742 175.872 313.513C175.767 313.284 175.713 313.036 175.713 312.787C175.713 312.537 175.767 312.29 175.872 312.06C175.976 311.831 176.129 311.625 176.321 311.454C176.513 311.283 176.74 311.151 176.988 311.067C177.236 310.982 177.499 310.947 177.762 310.963L174.146 310.276L173.179 313.051L174.798 315.394L177.762 314.611Z" fill="#8F3535"/>
<path d="M178.076 309.277H173.808L171.678 312.784L173.808 316.29H178.076L180.206 312.784L178.076 309.277ZM175.946 314.611C175.565 314.613 175.192 314.507 174.874 314.307C174.556 314.107 174.308 313.822 174.161 313.488C174.014 313.154 173.975 312.787 174.049 312.432C174.122 312.077 174.305 311.75 174.574 311.494C174.843 311.237 175.186 311.063 175.56 310.992C175.933 310.92 176.321 310.956 176.673 311.094C177.026 311.232 177.327 311.467 177.539 311.767C177.751 312.068 177.864 312.422 177.864 312.784C177.864 313.267 177.662 313.731 177.303 314.073C176.943 314.416 176.455 314.609 175.946 314.611Z" fill="#EE5858"/>
<path d="M328.461 309.038L326.882 306.435L328.461 303.831H330.151L329.2 306.435L330.151 309.038H328.461Z" fill="#EE5858"/>
<path d="M330.041 307.792C330.238 307.806 330.435 307.782 330.62 307.72C330.806 307.658 330.976 307.56 331.121 307.433C331.265 307.306 331.38 307.152 331.459 306.981C331.537 306.81 331.578 306.625 331.578 306.438C331.578 306.252 331.537 306.067 331.459 305.896C331.38 305.724 331.265 305.571 331.121 305.443C330.976 305.316 330.806 305.219 330.62 305.157C330.435 305.095 330.238 305.071 330.041 305.084L332.73 304.577L333.445 306.636L332.25 308.374L330.041 307.792Z" fill="#EE5858"/>
<path d="M329.813 303.831H332.957L334.529 306.435L332.957 309.038H329.813L328.241 306.435L329.813 303.831ZM331.385 307.792C331.669 307.794 331.946 307.715 332.182 307.567C332.419 307.419 332.603 307.207 332.713 306.959C332.822 306.711 332.852 306.438 332.797 306.174C332.743 305.91 332.607 305.668 332.408 305.477C332.208 305.287 331.953 305.157 331.675 305.104C331.398 305.051 331.11 305.077 330.848 305.18C330.586 305.282 330.362 305.456 330.204 305.68C330.047 305.903 329.963 306.166 329.963 306.435C329.962 306.613 329.998 306.79 330.07 306.955C330.141 307.121 330.246 307.271 330.379 307.397C330.513 307.523 330.671 307.623 330.845 307.691C331.019 307.759 331.205 307.793 331.393 307.792H331.385Z" fill="#8F3535"/>
<path d="M269.598 312.5H273.151C273.595 312.498 274.021 312.328 274.335 312.029C274.649 311.73 274.825 311.325 274.825 310.903C274.825 310.481 274.649 310.076 274.335 309.777C274.021 309.478 273.595 309.309 273.151 309.307H269.598C269.152 309.307 268.724 309.475 268.409 309.774C268.093 310.074 267.916 310.48 267.916 310.903C267.916 311.326 268.093 311.733 268.409 312.032C268.724 312.331 269.152 312.5 269.598 312.5Z" fill="#8F3535"/>
<path d="M263.884 309.486C264.213 308.917 264.711 308.452 265.316 308.148C265.921 307.844 266.606 307.715 267.288 307.777C267.969 307.838 268.616 308.088 269.15 308.494C269.684 308.901 270.08 309.447 270.291 310.064C270.502 310.682 270.517 311.345 270.336 311.971C270.154 312.598 269.783 313.16 269.269 313.588C268.755 314.017 268.12 314.294 267.443 314.384C266.765 314.474 266.074 314.374 265.456 314.096C264.606 313.68 263.963 312.962 263.669 312.098C263.374 311.235 263.452 310.296 263.884 309.486Z" fill="#EE5858"/>
<path d="M264.842 314.095L265.816 314.531L269.201 307.716L268.227 307.28L264.842 314.095Z" fill="#8F3535"/>
</svg>
