<svg width="731" height="701" viewBox="0 0 731 701" fill="none" xmlns="http://www.w3.org/2000/svg">
<path d="M663.35 578.55C662.15 577.38 660.91 576.24 659.75 575.03C658.71 573.95 657.49 572.84 657.54 571.32C660.86 572.43 664.03 574.08 667.37 577.48C667.03 576.82 666.93 576.54 666.74 576.29C666.46 575.92 666.12 575.57 665.79 575.23C661.14 570.55 656.44 565.92 651.85 561.19C639.2 548.18 626.65 535.09 613.96 522.12C604.63 512.59 595.14 503.21 585.71 493.78C580.7 488.76 575.63 483.8 570.65 478.76C566.09 474.15 561.63 469.43 557.07 464.81C538.48 446.01 519.87 427.22 501.26 408.44C498.13 405.28 495.05 402.05 491.79 399.05C488.46 395.99 486.15 392 482.3 389.45C481.87 389.16 481.52 388.56 481.1 388.14C478.13 385.19 475.14 382.26 472.19 379.29C471.18 378.28 470.07 377.22 469.34 376.11C467.46 373.24 465 371.11 462.33 369.11C459.84 367.25 457.64 365.15 455.85 362.55C455.03 361.35 453.9 360.17 452.79 359.11C450.63 357.05 448.31 355.17 446.2 353.06C440.25 347.12 434.14 341.27 428.55 335.06C421.96 327.74 414.89 320.89 408.14 313.74C405.15 310.58 402.48 307.25 399.1 304.27C394.84 300.5 391.02 296.08 386.98 291.97C383.69 288.63 380.31 285.39 377.06 282.03C372.89 277.73 368.85 273.31 364.66 269.02C358.37 262.58 351.99 256.22 345.65 249.82C341.25 245.38 336.92 240.87 332.45 236.51C323.68 227.94 315.21 219.1 306.9 210.13C299.98 202.65 293.17 195.08 286.25 187.59C282.02 183.01 277.74 178.46 273.37 174.01C270.86 171.45 268.21 168.86 265.45 166.72C260.42 162.83 255.26 159.3 250.17 155.56C249.12 154.79 248.28 154.41 247.47 154.58C246.19 154.83 244.88 154.04 243.41 152.69C239.97 149.52 236.45 146.45 233.02 143.26C226.26 136.98 219.48 130.71 212.8 124.32C205.59 117.43 198.56 110.35 191.34 103.48C183.16 95.7001 174.87 88.0601 166.62 80.3601C164.54 78.4201 162.45 76.4801 160.87 75.0101C159.7 74.9101 158.98 75.1301 158.34 74.7301C156.42 73.5602 154.43 72.3001 152.64 70.7901C148.37 67.2001 144.17 63.4701 139.97 59.7501C134.42 54.8401 128.98 49.7301 123.34 44.9801C117.65 40.1801 112.32 34.5801 106.05 30.9101C105.69 30.7001 105.37 30.2401 105.01 29.9401C102.77 28.1001 100.53 26.2801 98.0402 24.2401C97.9602 25.3201 97.9002 26.0101 97.8402 26.8301C102.22 31.1001 105.17 35.7601 107.43 40.6601C103 37.3801 99.3602 33.1501 95.2402 29.4401C96.5302 32.4601 100.33 34.8901 101.42 38.4901C100.41 37.7501 99.8602 37.4001 99.3602 36.9801C95.3002 33.5801 91.8902 29.1701 87.3602 26.5101C85.5002 24.1401 83.0602 22.9101 80.8602 21.1901C77.7002 18.7101 74.5802 16.1201 71.4502 13.5501C67.1402 10.0101 62.8402 6.45015 58.5202 2.92015C57.9202 2.43015 57.2602 2.09015 56.5802 1.65015C55.7902 2.81015 56.6302 4.16015 57.8502 5.63015C60.1402 8.37015 62.4302 11.1201 64.6802 13.8801C65.2902 14.6301 65.7702 15.4401 66.3202 16.2301C65.4702 16.0501 64.8502 15.7201 64.4202 15.2501C62.8102 13.4901 61.2602 11.6801 59.6902 9.88015C58.8402 8.91015 58.0802 7.04015 56.9402 7.54015C55.9102 7.99015 57.6202 9.34015 58.3402 10.2601C61.5302 14.3601 64.7602 18.4401 67.9402 22.5401C68.4402 23.1901 68.7202 23.9201 69.4102 25.1901C68.2402 24.3301 67.6302 24.0001 67.1602 23.5301C63.3302 19.7401 59.1402 16.3301 55.7002 12.1201C54.4302 10.5701 52.9102 9.14015 51.4802 7.68015C50.6902 6.87015 49.8402 6.01015 48.6502 6.06015C49.9802 7.96015 51.1302 9.65015 52.3502 11.3201C53.5202 12.9301 54.8402 14.4901 55.9402 16.1101C57.0402 17.7201 58.9002 19.1801 59.4602 21.3601C58.5302 20.7001 57.8902 20.3001 57.3002 19.8101C55.6502 18.4501 54.0302 17.0201 52.3702 15.6801C51.7802 15.2001 50.9102 14.5701 50.4902 14.5901C48.9602 14.6301 47.7202 13.4101 46.4402 12.1001C45.7702 11.4101 45.2002 10.4901 43.9902 10.1401C45.5202 12.9501 48.7302 14.5801 49.8602 17.3801C47.6002 17.2801 45.1902 14.7401 42.6202 14.1501C44.1402 16.4301 45.4702 18.4301 46.9302 20.6201C45.1802 20.4201 44.1402 19.0401 43.0202 18.1201C40.2802 15.8501 37.5502 13.5401 34.8002 11.3001C34.2702 10.8701 33.6202 10.6901 32.4102 10.0801C34.8702 13.6801 36.9202 16.6901 38.9202 19.6301C37.8602 21.1201 37.8402 21.1201 39.3302 23.6801C39.9502 24.7401 40.7002 25.7901 41.3402 26.8601C41.7102 27.4801 41.9802 28.1101 42.6402 29.4301C39.0202 27.0501 37.3602 23.6301 34.1502 21.1601C34.6002 22.0101 34.7402 22.3801 34.9802 22.7201C36.8402 25.3901 38.7802 28.0301 40.5802 30.7101C43.5202 35.1101 46.3702 39.5301 49.2602 43.9301C49.8902 44.8901 50.4702 45.8401 49.9802 46.7801C48.9102 45.8701 47.9202 45.1001 47.0002 44.2501C44.8002 42.2101 42.6502 40.1001 40.4402 38.0801C39.5502 37.2601 38.6302 36.1901 37.0602 35.9001C37.5402 37.1301 37.9802 38.2501 38.4002 39.3301C37.8002 39.3101 37.3402 39.3001 36.8502 39.2801C38.3502 41.1901 39.7302 42.9601 41.1302 44.7101C42.6102 46.5601 44.1002 48.4101 45.5902 50.2601C47.0102 52.0101 48.4302 53.7602 49.8502 55.5201C51.3402 57.3701 52.7902 59.2401 54.3002 61.0801C55.7302 62.8201 57.2402 64.5201 58.6702 66.2601C60.0702 67.9701 61.4102 69.7201 63.1802 71.9601C60.2202 70.6801 58.2202 67.5101 55.8402 67.5301C55.7502 67.5301 55.4802 67.2401 55.3202 67.0701C51.6002 63.1601 47.8302 59.2901 44.1902 55.3201C41.7102 52.6201 39.4102 49.7901 36.9102 46.8801C36.1402 47.7101 36.9502 48.6101 37.6902 49.5401C41.0102 53.7101 44.3202 57.8801 47.6102 62.0602C48.2502 62.8702 49.0402 63.7401 48.5202 64.3501C48.2802 64.2701 48.0602 64.2701 47.9302 64.1501C44.2202 60.8001 40.4202 57.5301 36.8202 54.0501C27.7402 45.3001 18.7402 36.4601 9.69023 27.6701C8.98023 26.9801 8.18023 26.4101 7.42023 25.7801C7.33023 25.8601 7.25023 25.9501 7.16023 26.0301C8.09023 27.3701 9.01023 28.7201 9.94023 30.0601C9.85023 30.1801 9.77024 30.3001 9.68024 30.4201C8.21024 29.3901 6.75024 28.3601 5.28024 27.3401C5.18024 27.4401 5.08023 27.5401 4.99023 27.6401C6.11023 29.2001 7.22023 30.7701 8.35023 32.3301C9.52024 33.9401 10.7802 35.5301 11.8602 37.1601C12.8602 38.6701 14.8802 39.9101 15.1502 41.7401C13.9202 41.5601 12.0702 39.7701 11.7602 41.5601C12.5102 42.4301 13.3602 43.4101 14.2102 44.3801C16.0202 46.4501 17.8502 48.5101 19.6402 50.5901C20.2602 51.3102 20.8802 52.1301 19.9302 52.5501C17.1902 50.2301 15.3102 46.8901 11.7602 44.2001C12.3502 45.1601 12.5102 45.5501 12.7902 45.8601C20.3102 54.2001 26.9502 63.0701 34.6802 71.3001C40.4002 77.3902 45.0402 84.2401 51.3002 89.9701C51.4702 90.1301 51.6002 90.3401 51.7502 90.5201C55.4802 94.8602 59.1602 99.2301 62.9702 103.51C66.2902 107.24 69.7702 110.86 73.1402 114.57C75.5402 117.22 77.7602 120.01 80.2302 122.58C85.8802 128.47 91.6502 134.24 97.3402 140.1C102.03 144.93 106.67 149.79 111.3 154.67C112.39 155.82 113.36 157.08 114.38 158.29C114.55 157.75 114.38 157.28 114.07 156.88C112.66 155.13 111.27 153.35 109.75 151.67C106.38 147.94 102.93 144.27 99.5302 140.56C95.0102 135.62 90.5502 130.63 86.0002 125.72C82.1002 121.51 78.0902 117.39 74.1502 113.21C73.7502 112.78 73.5402 112.2 73.2302 111.69C73.3502 111.6 73.4602 111.5 73.5802 111.41C74.8702 112.51 76.2202 113.55 77.4402 114.74C79.1402 116.4 80.7802 118.15 82.3702 119.91C83.8702 121.57 85.2502 123.31 86.7002 125.01C87.0702 125.44 87.4602 125.88 87.8802 126.26C89.8102 128 91.8202 129.67 93.6902 131.48C96.5302 134.23 99.2702 137.09 102.07 139.87C104.89 142.66 107.94 145.28 110.53 148.21C115.43 153.75 121.69 157.84 126.15 163.76C126.28 163.94 126.51 164.07 126.68 164.24C129.29 166.7 131.94 169.12 134.49 171.65C137.97 175.1 141.34 178.65 144.81 182.11C149.37 186.67 154 191.17 158.56 195.72C162.21 199.36 165.74 203.14 169.47 206.69C173.79 210.79 178.28 214.69 182.68 218.71C183.36 219.33 183.91 220.12 184.49 220.85C185.08 221.58 185.57 222.4 186.22 223.06C188.75 225.61 191.37 228.07 193.88 230.63C197.81 234.65 202.28 238.06 205.88 242.48C207.32 244.25 209.55 245.58 211.1 247.33C213.76 250.35 216.72 252.9 219.71 255.47C221.52 257.03 223.06 258.6 222.89 260.34C226.64 263.68 230.91 265.75 233.93 269.96C230.31 270.18 227.25 267.79 224.34 264.13C223.92 263.6 223.36 263.14 222.86 262.66C220.61 260.47 218.63 257.92 215.91 256.36C215.58 256.17 215.27 255.67 214.95 255.31C212.52 252.66 210.21 249.88 207.64 247.39C204.78 244.63 201.97 241.9 199.47 238.84C199.1 238.39 198.49 238.07 198.24 237.88C198.11 239.08 198 240.09 197.87 241.21C198.47 241.99 199.18 242.89 199.88 243.8C197.64 242.3 195.72 240.61 193.84 238.88C189.81 235.18 186.27 230.95 182.02 227.47C180.76 226.44 179.62 225.28 177.98 225.15C178.66 225.83 179.06 226.25 179.47 226.64C185.34 232.11 191.23 237.56 197.09 243.04C199.19 245 201.22 247.06 203.32 249.01C205.86 251.37 208.5 253.62 211 256.03C214.36 259.26 217.6 262.54 221.22 265.52C225.15 268.74 228.84 272.44 232.56 276.02C233.73 277.15 234.64 278.56 235.7 279.82C237.32 281.75 238.96 283.68 240.64 285.58C240.91 285.88 241.4 286.09 241.77 286.26C245.4 287.88 248.13 291.33 251.25 293.98C251.7 294.36 251.88 295.13 252.3 295.67C253.59 297.3 254.28 299.41 256.21 300.49C258.44 301.74 259.99 303.57 261.71 305.41C263.33 307.14 265.12 308.74 266.83 310.4C270.07 313.54 273.3 316.69 276.53 319.84C276.67 319.98 276.73 320.21 276.85 320.43C276.67 320.67 276.5 320.92 276.18 321.35C279.68 324.85 283.14 328.33 286.63 331.79C288.59 333.73 290.64 335.59 292.58 337.55C293.9 338.88 295.2 340.28 295.89 341.93C293.63 342.48 291.75 338.98 289.35 338.22C292.87 343.08 297.64 346.25 301.21 350.43C304.97 354.82 309.77 357.84 313.64 361.84C313.7 362.97 311.47 361.89 312.57 363.64C312.93 364.21 314.04 365.21 314.14 365.16C314.69 364.93 315.02 364.42 315.5 363.94C316.85 365.07 318.85 366.21 319.62 367.49C321.46 370.54 324.28 372.64 326.65 374.96C334.37 382.51 342.37 389.76 350.26 397.13C350.87 397.7 351.48 398.27 352.06 398.87C352.16 398.98 352.15 399.19 352.2 399.42C351.64 399.41 351.06 399.39 350.4 399.37C351.95 401.48 352.83 400.49 354.08 401.03C359.39 406.47 365.6 411.34 369.3 417.41C369.84 418.89 369.95 420.11 370.68 420.98C371.82 422.34 372.37 421.35 372.92 421.1C375.45 423.42 377.83 425.59 380.2 427.79C380.63 428.19 380.96 428.69 381.36 429.13C382.4 430.27 383.45 431.4 384.5 432.54C385.95 434.12 387.56 435.65 388.81 437.31C390.44 439.48 392.2 441.3 394.45 442.58C395.94 443.44 396.96 444.59 397.81 446.05C398.41 447.09 399.12 448.24 400 449.12C403.38 452.52 406.84 455.85 410.3 459.17C413.84 462.57 417.41 465.94 420.96 469.32C421.3 469.65 421.57 470.05 421.9 470.39C424.07 472.61 426.23 474.83 428.42 477.03C428.59 477.21 428.92 477.24 429.28 477.38C428.82 476.47 428.43 475.68 427.95 474.71C429.57 475.19 431.07 476.28 431.61 477.4C432.97 480.2 435.04 481.62 437.46 482.92C438.02 483.22 438.6 483.73 439.11 484.22C443.99 488.83 448.82 493.49 453.72 498.06C455.89 500.09 458.24 501.89 460.41 503.92C464.44 507.69 468.41 511.53 472.38 515.36C475.14 518.03 477.85 520.75 480.62 523.42C483.81 526.5 487.03 529.55 490.25 532.6C492.6 534.82 494.99 537.01 497.35 539.22C502.77 544.28 508.2 549.33 513.6 554.41C517.87 558.43 522.07 562.56 526.38 566.53C529.53 569.43 532.84 572.11 536.02 574.97C537.23 576.06 538.27 577.86 539.41 578.49C542.29 580.07 544.03 582.92 546.52 584.86C547.7 585.78 548.88 586.99 548.42 588.44C544.09 585.84 539.77 583.23 535.44 580.63C539.34 585.34 544.06 588.55 549.05 592.64C548.45 591.34 548.13 590.64 547.87 590.09C548.7 588.97 549.9 589.05 551.65 590.76C551.69 590.19 551.71 589.85 551.74 589.37C552.54 589.99 553.12 590.38 553.65 590.85C557.3 594.12 560.96 597.39 564.59 600.69C566.8 602.7 568.96 604.67 571.41 606.37C573.54 607.86 575.73 609.83 577.47 611.85C579.47 614.16 581.62 616.16 583.86 618.12C586.38 620.32 588.93 622.48 591.45 624.69C592.07 625.23 592.83 625.87 593.17 626.48C594.88 629.55 597.66 631.6 600.25 633.86C600.78 634.32 601.24 634.91 602.1 635.83C598.6 634.85 595.88 631.5 592.89 630.52C595.81 633.19 598.82 635.65 601.8 638.15C604.72 640.6 607.57 643.21 610.54 645.54C613.49 647.85 616.23 650.75 619.48 652.42C619.15 651.78 618.75 651.24 618.27 650.81C615.88 648.65 613.45 646.54 611.09 644.34C610.51 643.8 609.73 642.67 609.8 642.34C609.98 641.57 610.95 642.34 611.71 642.9C611.9 643.04 612.08 643.2 612.26 643.35C618.33 648.31 624.39 653.27 630.45 658.24C632.47 659.89 634.49 661.55 636.49 663.23C637.35 663.94 638.43 664.61 638.36 665.95C632.74 662.78 627.7 657.79 621.63 654.01C623.02 656.35 624.67 657.06 625.85 658.28C627.03 659.5 628.62 660.53 629.09 662.08C628.43 662.72 627.51 662.02 626.68 661.43C625.07 660.28 623.44 659.12 621.87 657.87C613.73 651.35 605.6 644.79 597.47 638.25C595.72 636.84 593.93 635.52 592.79 633.47C592.47 632.89 591.64 632.31 591.02 631.78C589.48 630.47 587.92 629.18 586.37 627.88C578.32 621.17 570.28 614.46 562.23 607.77C556.38 602.91 550.46 598.17 544.66 593.24C539.95 589.23 535.31 585.07 530.72 580.87C525.26 575.86 519.88 570.74 514.47 565.66C514.12 565.33 513.77 564.91 513.41 564.71C509.77 562.64 506.9 559.27 503.72 556.43C502.92 555.72 502.02 555.01 501.4 554.21C499.32 551.49 496.65 549.61 494.18 547.4C491.13 544.67 487.67 542.44 485.24 538.81C484.4 537.56 482.67 536.48 481.33 535.36C479.99 534.23 478.59 533.2 477.3 532.02C475.1 529.99 473.08 527.65 470.8 525.82C466.79 522.6 462.99 519.31 459.92 515.14C459.59 514.69 459.11 514.25 458.66 513.87C455.88 511.45 453.11 508.99 450.28 506.64C448.53 505.19 447.02 503.82 445.6 501.89C444.45 500.32 442.31 499.09 440.62 497.7C440.45 497.56 440.32 497.32 440.15 497.16C437.62 494.94 435.09 492.73 432.56 490.52C432.48 490.63 432.41 490.74 432.33 490.84C434.32 492.83 436.26 494.86 438.3 496.79C442.67 500.91 447.12 504.93 451.48 509.06C460.63 517.72 469.74 526.43 478.88 535.11C481.57 537.67 484.26 540.25 487.02 542.73C491.21 546.48 495.5 550.08 499.66 553.87C508.95 562.35 518.14 570.95 527.45 579.41C534.09 585.45 540.84 591.35 547.56 597.28C550.15 599.56 552.91 601.62 555.44 603.97C558.97 607.26 562.95 610.01 566.03 613.86C566.24 614.12 566.56 614.35 566.83 614.58C570.91 618.03 575.02 621.41 579 625.07C583.31 629.04 587.84 632.73 592.32 636.45C599 641.98 605.71 647.47 612.45 652.89C618.36 657.65 624.33 662.29 630.28 666.97C635.48 671.06 640.7 675.12 645.9 679.2C651.94 683.93 657.98 688.68 664.03 693.4C666.3 695.17 668.6 696.89 671.32 698.97C670.46 696.74 670.04 695.07 668.4 693.39C665.14 690.05 661.88 686.72 658.62 683.38C658.37 683.12 658.06 682.88 657.87 682.61C655.51 679.12 652.16 676.95 649.03 674.49C648.1 673.76 647.14 673.08 646.25 672.29C645.82 671.91 645.53 671.33 645.18 670.85C645.26 670.72 645.34 670.6 645.42 670.47C646.8 671.37 648.18 672.3 649.57 673.17C653.21 675.44 656.86 677.61 660.17 680.94C660.79 681.56 661.96 682.42 662.34 682.36C663.85 682.1 665.19 683.46 666.7 684.55C668.59 685.9 670.52 687.7 672.62 687.7C668.45 684.46 664.28 681.21 660.1 677.96C659.52 679.45 658.67 679.3 657.27 677.11C655.39 674.17 653.08 671.76 650.26 669.64C649.44 669.02 648.55 668.27 648.73 667.15C649.32 667.44 650 667.62 650.57 668.06C657.3 673.21 664.04 678.36 670.74 683.6C674.83 686.8 678.86 690.16 682.92 693.43C684.56 694.75 686.22 695.99 687.98 696.13C687.15 694.3 685.9 693.19 684.44 692.07C679.96 688.62 675.51 685.1 671.06 681.59C670.23 680.93 669.35 680.22 669.5 679.26C670.6 678.93 671.85 680.01 673.04 680.9C679.61 685.82 686.18 690.75 692.74 695.7C693.67 696.4 694.52 697.27 695.43 698.03C696.04 698.54 696.71 699.17 697.31 699.42C698.77 700.03 700.21 700.44 701.6 700.92C699.95 698.87 696.99 696.37 695.08 695.21C692.84 693.85 690.25 692.26 689.37 689.81C688.42 687.17 686.51 685.3 684.44 683.34C679.03 678.23 673.6 673.16 668.19 668.05C667.48 667.38 666.85 666.59 666.19 665.86C666.91 665.78 667.51 665.89 667.94 666.27C671.45 669.35 675.13 671.92 678.84 674.44C679.57 674.94 680.25 675.7 680.93 676.37C681.35 676.78 681.71 677.41 682.12 677.65C685.3 679.53 688.05 682.15 690.8 684.82C691.43 685.43 692.29 685.84 693.04 686.28C695.94 687.97 698.83 689.61 701.73 691.32C703.64 692.45 705.54 693.68 707.37 693.87C707.12 692.67 706.22 692.19 705.37 691.57C704.45 690.9 703.38 690.19 702.72 689.35C700.62 686.66 698.08 684.6 695.51 682.51C694.67 681.83 693.93 680.96 693.15 680.17C695.92 680.25 698.55 682.89 701.17 684.05C703.89 685.26 706.65 686.85 709.39 688.27C708.92 687.28 708.34 686.55 707.67 686.06C701.38 681.34 695.07 676.67 688.77 671.96C686.45 670.23 684.02 668.67 682.79 665.78C682.45 664.98 681.26 664 680.38 663.21C677.89 660.96 675.37 658.76 672.85 656.55C666.28 650.81 659.71 645.07 653.12 639.37C652.47 638.8 651.61 638.31 650.92 638.1C648.32 637.27 646.04 635.37 644.32 632.99C643.11 631.31 641.81 629.92 640.32 628.51C638.91 627.16 637.28 625.95 636.06 624.16C640.15 625.41 640.12 625.45 642.95 628.01C648.46 632.98 653.94 638.03 659.6 642.75C661.62 644.43 663.41 646.3 665.38 647.97C669.92 651.82 674.44 655.71 679 659.5C680.9 661.08 682.89 662.53 684.88 663.94C686.46 665.06 688.15 665.9 689.67 667.11C691.67 668.71 693.56 670.56 695.68 672.47C696.17 671.33 697.21 672.18 698.43 673.21C700.61 675.04 702.83 676.78 705.06 678.51C706.34 679.5 707.71 680.32 708.97 681.35C711.01 683 713 684.76 715.01 686.48C714.16 684.62 713.19 682.81 711.79 681.4C709.45 679.02 706.84 676.9 704.35 674.67C703.04 673.5 701.72 672.32 700.7 670.17C709.2 676.12 717 681.95 723.97 689.88C726.07 689.19 728.69 693.43 731.15 693.44C729.97 691.17 729.94 691.17 728.28 690.07C726.16 688.67 724 687.35 723.94 684.76C723.93 684.3 722.84 683.29 721.89 682.07C721.2 683.99 719.82 682.79 718.39 681.41C714.61 677.76 710.79 674.14 707.05 670.44C706.15 669.55 705.03 668.28 704.81 667.44C704.46 666.08 704.77 664.92 704.81 663.57C703.824 662.703 702.78 662.467 701.68 662.86C699.66 660.63 697.59 658.34 695.31 655.81C697.9 655.58 700.06 657.72 702.21 659.45C703.26 660.3 704.3 661.18 705.58 662.24C705.55 660.41 706.45 660.22 708.15 661.38C709.37 662.21 710.56 663.13 711.76 664.01C712.32 664.42 712.88 664.82 713.44 665.22C713.51 665.12 713.58 665.03 713.64 664.93C712.55 663.45 711.46 661.97 710.45 660.59C711.97 659.44 713.42 662.32 715.16 662.68C714.56 661.95 714.26 661.51 713.89 661.14C711.6 658.86 709.28 656.61 707 654.32C706.12 653.44 705.37 652.5 705.78 651.69L705.8 651.79C704.62 650.96 703.54 650.15 703.34 648.76C703.28 648.35 702.76 647.65 702.32 647.19C701.11 645.91 699.84 644.69 698.38 643.23C697.41 643.58 696.06 642.83 694.65 641.43C690.39 637.2 686.1 632.99 681.86 628.75C681.17 628.06 680.62 627.22 679.91 626.33C681.06 625.87 682.04 626.57 683.05 627.53C683.82 628.27 684.58 629.26 685.37 629.7C687.28 630.76 688.59 632.37 690.08 633.94C691.09 635.02 692.38 636.2 693.52 636.77C695.58 637.79 697.33 639.13 699.03 640.94C699.93 641.89 700.95 642.74 701.92 643.63C704.29 645.82 706.63 648.05 709.04 650.19C712.13 652.94 715.28 655.61 718.41 658.3C718.48 658.36 718.66 658.26 718.92 658.21C717.86 657.15 716.86 656.12 715.84 655.13C713.43 652.79 710.99 650.48 708.58 648.14C706.35 645.99 704.32 643.63 701.68 641.97C700.74 641.38 699.34 639.97 699.1 639.19C698.37 636.81 696.33 635.35 694.63 633.57C693.28 632.15 691.42 631.04 690.56 629.03C691.38 628.86 692.15 628.71 692.82 628.57C695.29 630.55 697.58 632.41 699.89 634.23C701.56 635.55 703.52 636.62 704.87 638.14C708.38 642.09 713.02 644.57 716.2 648.82C716.26 648.9 716.54 648.91 717.06 649.03C716.29 647.92 715.27 646.85 715.01 645.99C714.5 644.29 713.21 643.25 711.89 642.03C710.75 640.98 709.45 639.88 708.66 638.7C706.85 636.02 705.3 633.28 703.68 630.63C705.3 631.5 706.5 633.64 708.52 634.3C708.23 633.78 708.14 633.45 707.93 633.23C706.18 631.42 704.36 629.67 703.38 627.48C703.19 627.06 702.64 626.56 702.22 626.15C699.57 623.54 696.89 620.96 694.24 618.35C686.55 610.76 678.84 603.19 671.23 595.52C669.85 594.14 668.17 592.12 667.88 590.82C667.37 588.54 665.75 587.15 664.08 585.49C659.06 580.49 654.05 575.48 649.04 570.47C648.27 569.7 647.44 568.91 647.95 568.08C648.34 568.25 648.86 568.34 649.24 568.66C651.96 570.96 654.65 573.31 657.34 575.65C657.96 576.19 659 577.29 659.12 577.23C660.28 576.65 662.11 578.66 663.31 578.46L663.34 578.53L663.35 578.55ZM151.18 175.99C150.85 175.24 150.07 174.36 149.37 173.66C146.91 171.21 144.39 168.83 141.91 166.4C141.43 165.93 141.05 165.37 140.18 164.32C141.18 164.75 141.69 164.86 142.13 165.19C142.78 165.67 143.37 166.3 143.99 166.86C146.48 169.08 149 171.26 151.46 173.51C154.55 176.32 157.65 179.14 160.67 182.04C163.94 185.18 167.1 188.43 170.36 191.58C171.9 193.07 173.57 194.4 175.12 195.88C175.83 196.55 176.39 197.39 177.19 198.37C175.27 198.48 174.28 196.14 172.6 195.58C172.93 196.2 173.09 196.76 173.46 197.14C174.62 198.35 175.89 199.46 177.06 200.66C179.06 202.72 181.01 204.81 182.98 206.89C183.47 207.41 183.94 208 184.47 208.41C188.54 211.59 191.89 215.4 195.33 219.26C198.48 222.78 201.33 226.61 205.2 229.63C206.73 230.82 208.01 232.44 208.74 234.26C209.11 235.19 210.16 236.26 210.99 237.22C213.68 240.35 216.4 243.46 219.17 246.65C218.13 247.32 217.29 246.65 216.52 245.61C211.97 239.49 206.26 234.32 200.81 228.94C197.56 225.73 194.23 222.6 191.09 219.31C189.08 217.21 186.88 215.16 185.66 212.52C185.15 211.41 183.72 210.18 182.64 209.05C178.09 204.28 173.55 199.5 168.95 194.78C166.2 191.95 163.31 189.23 160.56 186.39C159.56 185.36 158.78 184.14 157.65 182.68C154.98 181.54 152.5 179.01 151.19 176.01L151.18 175.99ZM54.4302 76.8601C57.0102 79.5101 59.7402 82.0301 62.3302 84.6801C66.6802 89.1301 70.9502 93.6501 75.3002 98.1001C76.7102 99.5401 78.2402 100.87 79.7302 102.23C82.4602 104.71 85.1102 107.19 87.5602 110.04C90.6602 113.63 94.1502 116.99 97.5002 120.42C98.6702 121.62 100.04 122.66 101.14 123.89C104.3 127.42 108.01 130.12 111.45 133.22C113.66 135.21 115.4 137.57 116.79 139.95C116.66 140.07 116.53 140.18 116.4 140.3C115.47 139.48 114.51 138.71 113.63 137.85C106.16 130.55 98.6702 123.27 91.2502 115.91C85.6302 110.34 80.1402 104.64 74.5002 99.0801C72.7402 97.3401 70.7002 95.8801 68.7702 94.3201C67.9502 93.6501 67.0002 93.1501 66.2702 92.4101C61.0202 87.1402 55.8102 81.8401 50.6002 76.5301C50.1402 76.0601 49.8402 75.4501 49.2902 74.6701C52.1102 74.4801 52.2402 74.6101 54.4302 76.8601ZM254.06 290.06C256.1 291.98 258.39 293.99 259.68 296.52C257.43 295.43 255.52 293.87 254.09 291.69C253.45 290.71 252.81 290.06 251.83 289.77C249.28 289.02 247.02 286.94 244.88 284.87C243.08 283.13 241.44 281.2 239.76 279.33C239.49 279.04 239.36 278.65 239 278.01C241 278.98 242.68 279.69 244.35 280.63C246.4 281.78 247.05 282.87 246.97 284.59C249.36 286.4 251.89 288.01 254.07 290.05L254.06 290.06ZM225.95 252.12C230.03 256.17 234.06 260.28 238.1 264.37C238.33 264.61 238.47 264.93 238.66 265.23C238.41 266.18 237.42 265.67 236.66 264.93C232.18 260.62 227.45 256.53 223.68 251.58C223.56 251.43 223.58 251.22 223.34 250.3C224.44 251.05 225.31 251.48 225.97 252.13L225.95 252.12ZM600.92 615.22C601.32 615.35 601.75 615.37 602.11 615.63C606.08 618.5 617.13 628.53 618.2 630.5C611.93 626.35 606.21 621.3 600.92 615.22ZM107.61 103.04C110.92 105.88 114.22 108.73 117.52 111.59C118.4 113.72 120.7 115.39 122.25 117.87C121.27 117.38 120.63 117.24 120.23 116.84C115.63 112.3 111.08 107.72 106.5 103.15C106.5 102.88 106.49 102.61 106.48 102.34C106.86 102.58 107.27 102.76 107.61 103.05V103.04ZM613.49 601.99C616.72 603.55 620.49 607.08 622.09 610.17C618.97 609.07 614.63 604.87 613.49 601.99ZM688.56 626.29C688.49 626.44 688.42 626.6 688.35 626.75C687.66 626.32 686.84 626 686.31 625.44C684.38 623.43 682.19 621.57 680.87 619.09C684.25 620.68 686.44 623.45 688.57 626.29H688.56ZM700.17 648.7C700.61 648.99 701.19 649.96 701.27 650.44C701.4 651.21 700.87 651.52 699.93 651.04C697.75 649.91 696.13 648.23 694.77 645.6C696.9 646.81 698.55 647.66 700.16 648.71L700.17 648.7ZM653.39 634.2C650.5 632.66 648.09 630.41 646.05 627.61C649 629.11 651.73 630.94 653.39 634.2ZM598.15 612.46C596.44 612.5 592.91 609.65 591.28 606.91C593.43 607.63 596.07 609.76 598.15 612.46ZM699.34 655.01C701.68 654.12 703.13 655.05 704.63 658.58C702.34 658.01 701.08 657.14 699.34 655.01ZM217.98 251.03C215.86 250.42 213.4 248.09 212.14 245.49C214.58 246.43 216.09 247.86 217.98 251.03ZM692.4 650.66C688.5 649.51 685.19 647.11 684.12 644.54C686.89 646.78 689.87 647.4 692.4 650.66ZM98.5602 94.9901C98.2802 94.6601 98.4202 94.0801 98.3402 93.3201C100.66 95.1501 101.97 97.0001 103.55 99.5801C101 98.1401 99.8302 96.4701 98.5602 94.9901ZM296.81 343.52C299.18 344.05 299.88 344.69 301.41 347.83C299.35 346.57 297.98 345.27 296.81 343.52ZM66.9702 105.08C69.7402 106 70.5202 108.05 71.6402 109.76C69.4702 108.85 68.1402 107.31 66.9702 105.08ZM422.74 469.35C425.51 470.63 426.27 471.37 426.86 473.48C424.78 472.76 423.67 471.25 422.74 469.35ZM588.05 603.74C586.02 603.35 585.34 602.75 583.77 599.82C586.26 600.91 586.72 601.34 588.05 603.74ZM131.84 127.82C129.42 127.43 128.74 125.03 127.33 123.54C128.83 124.96 130.34 126.39 131.84 127.82ZM288.16 331.16C286.78 331.07 285.77 330.35 285.04 329.11C285.15 328.94 285.27 328.76 285.38 328.58C286.31 329.44 287.23 330.3 288.16 331.15V331.16ZM136.84 133.46C137.03 133.34 137.12 133.18 137.22 133.23C138.1 133.69 138.82 134.26 138.94 135.55L136.85 133.46H136.84ZM219.07 244.71C219.15 244.6 219.22 244.49 219.3 244.38C219.82 244.83 220.34 245.28 220.87 245.74C220.76 245.89 220.66 246.04 220.55 246.2L219.07 244.72V244.71ZM705.1 636.57C705.18 636.42 705.26 636.28 705.34 636.13C705.69 636.48 706.05 636.84 706.4 637.19C706.34 637.28 706.29 637.37 706.23 637.46C705.85 637.16 705.48 636.87 705.1 636.57Z" fill="#BC1E2D"/>
<path d="M0.850311 50.3401C3.08031 52.4701 5.32031 54.6001 7.55031 56.7301C8.24031 57.3901 8.89031 58.1501 9.62031 58.7301C16.3903 64.0901 22.0003 70.7201 28.1603 76.7501C30.5603 79.0901 32.9603 81.4301 35.3703 83.7701C35.8003 84.1901 36.2403 84.6001 36.6603 85.0301C40.9003 89.3901 45.1403 93.7601 49.3703 98.1301C49.6903 98.4601 50.1203 98.9201 50.1903 99.2101C50.9303 102.19 53.5703 104.72 55.7603 107.29C57.7903 109.67 59.3503 112.1 60.5903 114.82C58.9803 113.5 57.2103 112.31 55.7803 110.83C46.3703 101.08 37.0303 91.2601 27.6503 81.4701C22.7503 76.3601 17.9103 71.1901 12.8603 66.2401C10.5203 63.9401 8.94031 61.4601 7.29031 59.0601C6.11031 57.3501 5.00031 55.7101 3.55031 54.1101C2.51031 52.9601 1.56031 51.7401 0.570312 50.5501C0.660313 50.4801 0.750309 50.4101 0.840309 50.3501L0.850311 50.3401Z" fill="#BC1E2D"/>
<path d="M395.23 218.85C396.74 221.34 398.01 220.38 399.32 220.88C399.89 222.07 400.44 223.21 400.98 224.34C401.67 224.56 402.21 224.73 402.8 224.92C402.64 225.36 402.5 225.73 402.27 226.36C403.57 226.62 404.57 226.82 405.56 227.01C406.3 228.58 407.04 230.01 407.61 231.41C408.14 232.72 408.03 233.72 407.05 234.04C406.05 234.36 405 234.64 403.9 234.81C400.99 235.28 398.34 233.79 394.94 230.58C392.6 228.38 391.36 226.31 390.6 224C390.15 222.63 389.97 221.41 391.21 221.13C391.42 221.08 391.71 221 391.71 220.81C391.71 218.82 393.46 218.89 395.23 218.85Z" fill="#BC1E2D"/>
<path d="M373.24 433.06C374.92 433.74 375.3 432.92 375.35 431.65C376.22 432.31 376.78 432.66 377.26 433.11C383.51 439.06 389.82 444.93 395.94 451.01C398.34 453.39 400.69 455.67 403.28 457.76C404.37 458.63 405.57 459.77 406.33 461.46C404.91 460.7 403.75 460.08 402.24 459.26C402.83 460.55 403.24 461.44 403.65 462.33C403.55 462.39 403.45 462.44 403.35 462.5C398.36 457.61 393.37 452.71 388.37 447.83C383.33 442.9 378.28 437.98 373.23 433.06H373.24Z" fill="#BC1E2D"/>
<path d="M584.17 623.53C575.45 616.01 566.78 609.15 558.59 601.16C559.08 601.31 559.56 601.41 560.06 601.63C562.07 602.53 564.08 603.5 566.08 604.39C567.9 605.2 569.35 606.6 570.46 608.28C571.48 609.84 572.73 610.72 574.18 611.83C576.85 613.89 579.49 616.27 581.83 618.77C582.91 619.92 583.29 621.67 584.16 623.53H584.17Z" fill="#BC1E2D"/>
<path d="M65.2904 125.09C46.1504 104.77 27.2004 84.2802 7.40039 64.5302C7.47039 64.4202 7.54039 64.3002 7.61039 64.1902C8.33039 64.8202 9.07039 65.4202 9.75039 66.0902C16.1504 72.3902 22.5904 78.6602 28.9104 85.0302C32.7804 88.9302 36.4504 93.0202 40.2404 97.0102C45.1904 102.22 50.1704 107.39 55.1004 112.61C56.4804 114.07 57.7604 115.62 59.0904 117.12C60.5904 118.82 62.0904 120.52 63.5804 122.23C64.3204 123.08 65.0604 123.92 65.8004 124.77C65.6304 124.88 65.4504 124.99 65.2804 125.1L65.2904 125.09Z" fill="#BC1E2D"/>
<path d="M677.29 578.1C676.7 577.63 676.05 577.21 675.52 576.67C672.6 573.68 669.72 570.66 666.82 567.65C662 562.65 657.18 557.66 652.36 552.67C651.95 552.24 651.46 551.73 651.02 551.5C647.69 549.81 645.52 546.64 642.87 544.07C641.28 542.53 640.2 541.08 640.3 539.51C644.6 542.77 675.4 574.79 677.29 578.1Z" fill="#BC1E2D"/>
<path d="M514.97 325.86C517.07 327.62 517.994 329.364 517.74 331.09C517.54 332.48 517.37 333.89 517.2 335.2C514.79 334.84 512.69 335.66 510.17 331.71C510.12 328.33 511.5 326.13 514.97 325.86Z" fill="#BC1E2D"/>
<path d="M550.02 450.17C548.94 449.21 547.85 448.25 546.32 446.89C546.59 448.87 548.13 449.93 549.05 451.09C550.06 452.36 551.19 453.58 552.48 455.07C540.85 445.5 530.89 434.52 520.13 424.47C520.21 424.33 520.3 424.19 520.38 424.05C521.47 424.99 522.66 425.85 523.62 426.89C525.57 429.01 527.55 430.94 529.81 432.77C533 435.36 536.03 438.32 539.06 441.21C541.02 443.08 542.86 444.67 545.16 445.41C547.24 446.08 548.69 448.18 550.02 450.17Z" fill="#BC1E2D"/>
<path d="M207.88 258.26C210.64 259.23 212.49 260.39 214.39 262.38C216.27 264.35 218.4 266.09 220.62 268.12C220.44 270.03 221.71 271.77 224.08 273.36C225.51 274.32 225.3 275.26 225.49 276.76C219.55 270.53 214 264.7 207.88 258.28V258.26Z" fill="#BC1E2D"/>
<path d="M565.141 466.34C566.401 467.83 567.59 469.38 568.94 470.8C570.18 472.1 571.59 473.26 572.86 474.57C570.77 473.71 566.43 469.77 562.5 465.31C563.12 464.88 563.74 464.45 564.41 463.98C564.87 464.36 565.341 464.71 565.771 465.11C568.911 468.02 572.02 470.96 575.17 473.86C577.6 476.1 580.09 478.27 582.26 481.34C579.58 480.24 578.031 477.92 576.141 476.34C574.261 474.76 572.61 472.81 570.82 471.05C569.05 469.31 567.23 467.61 565.43 465.89C565.33 466.04 565.23 466.19 565.13 466.33L565.141 466.34Z" fill="#BC1E2D"/>
<path d="M495.09 399.93C496.07 400.58 497.08 401.17 498.02 401.91C499.12 402.79 500.14 403.83 501.21 404.77C503.12 406.44 505.05 407.93 507.37 408.18C507.09 408.89 506.93 409.31 506.75 409.78C509.32 413.25 513.18 415.75 515.81 419.58C513.59 418.21 499.11 404.83 494.97 400.43C495.01 400.26 495.05 400.1 495.09 399.93Z" fill="#BC1E2D"/>
<path d="M142.93 186.16C144.6 187.2 146.13 188.66 147.57 190.11C152.51 195.13 157.39 200.2 162.28 205.28C162.69 205.7 162.92 206.28 163.46 207.16C162.69 206.75 162.26 206.63 161.99 206.36C155.52 199.78 149.08 193.19 142.62 186.59C142.73 186.45 142.83 186.3 142.94 186.16H142.93Z" fill="#BC1E2D"/>
<path d="M251.07 316.84C251.67 317.27 252.31 317.64 252.85 318.14C255.56 320.65 258.23 323.2 260.93 325.72C261.54 326.29 262.16 326.87 262.81 327.37C267.84 331.21 272.06 336.04 276.69 340.37C276.99 340.65 277.18 341.06 277.29 341.55C274.82 339.92 272.81 337.6 270.59 335.62C268.36 333.63 266.2 331.55 264.02 329.49C261.76 327.36 259.51 325.2 257.24 323.09C255.12 321.12 252.98 319.18 250.85 317.23C250.93 317.1 251 316.97 251.08 316.84H251.07Z" fill="#BC1E2D"/>
<path d="M470.81 329.37C468.43 326.72 469.89 325.79 469.74 324.28C469.55 322.37 471.94 323.17 472.65 322C473.6 323.11 474.34 323.97 475.15 324.93C474.64 326.3 474.37 327.8 473.59 328.82C473.14 329.4 471.85 329.2 470.82 329.38L470.81 329.37Z" fill="#BC1E2D"/>
<path d="M147.56 195.96C148.49 196.81 149.44 197.64 150.36 198.51C153.31 201.31 156.27 204.08 159.16 206.94C160.39 208.16 161.45 209.55 163.02 211.36C160.78 210.66 159.48 209.12 158.12 208.04C153.86 204.64 150.03 200.83 147.55 195.96H147.56Z" fill="#BC1E2D"/>
<path d="M268.58 385.91C266.89 384.15 266.45 382.53 267.39 381.56C268.03 380.9 270.59 381.98 272.16 383.57C273.49 384.92 274.02 386.44 273.36 387.04C272.32 387.99 270.06 387.45 268.58 385.91Z" fill="#BC1E2D"/>
<path d="M557.39 338.18C556.2 340.02 555.15 341.59 553.47 342.55C552.79 342.94 551.73 342.32 551.09 341.18C550.48 340.1 550.57 338.19 551.57 337.91C552.88 337.53 554.43 337.48 555.92 337.36C556.15 337.34 556.63 337.74 557.4 338.19L557.39 338.18Z" fill="#BC1E2D"/>
<path d="M303.251 365.53C310.401 372.25 317.54 378.96 324.67 385.67C324.59 385.81 324.51 385.95 324.42 386.09C323.92 385.73 323.37 385.42 322.92 384.99C316.26 378.66 309.611 372.31 302.961 365.96C302.951 365.96 303.081 365.77 303.241 365.54L303.251 365.53Z" fill="#BC1E2D"/>
<path d="M185.95 236.46C186.55 236.88 187.2 237.24 187.75 237.74C190.67 240.35 193.62 242.93 196.44 245.66C198.23 247.4 199.81 249.38 201.83 251.64C199.13 250.19 189 240.68 185.95 236.46Z" fill="#BC1E2D"/>
<path d="M233.76 465.3C234.01 465.77 234.41 466.43 234.7 467.08C235.6 469.07 235.38 469.88 234.05 469.57C231.91 469.08 230.33 467.78 229.72 466.03C229.19 464.5 229.62 463.93 231.11 464.33C231.83 464.52 232.59 464.87 233.75 465.3H233.76Z" fill="#BC1E2D"/>
<path d="M460.13 522.48C454.51 518.62 450.76 513.04 445.83 507.93C448.24 509.37 458.34 519.58 460.13 522.48Z" fill="#BC1E2D"/>
<path d="M405.12 514.53C405.05 515.83 404.99 516.97 404.93 518.15C403.49 518.06 402.16 517.44 401.03 515.73C399.56 513.5 401.08 513.22 401.68 512.35C402.82 513.07 403.88 513.74 405.13 514.53H405.12Z" fill="#BC1E2D"/>
<path d="M268.6 409.23C269.42 408.59 270.99 409.01 272.04 410.15C273.03 411.22 273.4 412.81 272.78 413.38C272.26 413.85 270.04 413.18 269.22 412.31C268.09 411.11 267.83 409.83 268.6 409.24V409.23Z" fill="#BC1E2D"/>
<path d="M132.52 175.47C130.27 174.37 123.26 167.5 120.4 163.88C122.47 164.76 123.03 165.2 126.54 168.94C128.42 170.95 130.26 173 132.52 175.46V175.47Z" fill="#BC1E2D"/>
<path d="M505.36 319.9C505.58 320.79 505.82 321.76 506.07 322.74C502.86 322.79 502.71 322.71 500.64 319.75C501.91 319.09 502.7 317.54 505.36 319.9Z" fill="#BC1E2D"/>
<path d="M329.99 420.85C330.51 419.57 330.67 418.11 332.7 418.99C333.33 419.26 334.68 420.76 334.64 421.04C334.51 422.05 334.26 423.23 333.43 423.51C332.25 423.91 331.27 422.05 329.98 420.85H329.99Z" fill="#BC1E2D"/>
<path d="M344.62 405.2C349.24 408.72 353.43 412.8 356.97 417.55C352.85 413.43 348.74 409.32 344.62 405.2Z" fill="#BC1E2D"/>
<path d="M301.46 378.95C299.66 377.78 300.21 376.94 300.06 376.08C299.76 374.3 300.99 374.05 302.38 374C304.94 377.46 303.14 378.11 301.45 378.95H301.46Z" fill="#BC1E2D"/>
<path d="M521.51 568.92C523.36 570.24 525.46 571.35 527 572.95C528.36 574.37 530.44 575.47 531.03 577.55C527.8 574.77 524.25 572.59 521.28 569.43C521.35 569.26 521.43 569.09 521.51 568.92Z" fill="#BC1E2D"/>
<path d="M516.82 561.41C516.39 561.2 515.93 561.07 515.54 560.77C512.87 558.68 510.21 556.56 507.56 554.41C507.28 554.18 507.09 553.76 506.47 552.87C510.6 555.26 513.84 557.94 516.93 560.93C516.89 561.09 516.86 561.24 516.82 561.4V561.41Z" fill="#BC1E2D"/>
<path d="M425.59 487.5C426.91 488.78 427.45 490.68 426.81 491.26C426.24 491.79 425.42 491.6 424.38 490.53C423.15 489.26 422.79 488.03 423.51 487.35C424.03 486.86 424.74 486.75 425.59 487.5Z" fill="#BC1E2D"/>
<path d="M285.3 405.46C285.91 406.07 286.55 406.71 287.35 407.51C287.04 407.97 286.79 408.41 286.47 408.8C286.02 409.35 285.64 410.06 284.24 409.08C283.18 406.62 283.3 406.18 285.3 405.46Z" fill="#BC1E2D"/>
<path d="M307.71 422.47C308.52 423.34 308.73 424.81 308.13 425.35C307.45 425.95 306.55 425.26 305.65 424.36C304.58 423.29 304.28 422.05 304.92 421.45C305.41 420.99 306.8 421.5 307.71 422.47Z" fill="#BC1E2D"/>
<path d="M427.21 485.19C424.66 484.23 421.45 481.22 420.05 478.66C422.97 479.93 424.95 482.28 427.21 485.19Z" fill="#BC1E2D"/>
<path d="M546.951 299.15C547.271 298.95 547.481 298.81 547.701 298.67C547.331 298.36 546.931 298.02 546.521 297.68C547.147 296.027 548.344 295.677 550.11 296.63C549.88 297.66 549.69 298.74 549.4 299.74C549.09 300.8 548.241 300.4 546.951 299.15Z" fill="#BC1E2D"/>
<path d="M428.96 321.6C427.64 320.48 426.64 319.46 426.98 318.54C427.41 317.39 428.58 317.23 430.4 317.96C431.43 320.44 429.8 320.69 428.96 321.6Z" fill="#BC1E2D"/>
<path d="M532.14 348.71C530.27 345.43 530.77 344.98 534.46 346.33C534.99 349.14 534.73 348.41 532.14 348.71Z" fill="#BC1E2D"/>
<path d="M410.68 513.63C410.46 515.36 409.63 515.87 408.46 515.13C407.5 514.53 406.64 512.82 406.91 512.05C407.2 511.23 407.6 511.39 410.68 513.62V513.63Z" fill="#BC1E2D"/>
<path d="M543.7 326.37C543.5 327.26 543.58 328.1 543.17 328.39C542.75 328.68 541.88 328.54 541.14 328.38C540.88 328.32 540.07 327.44 540.08 327.27C540.14 326.63 540.19 325.74 540.7 325.67C541.43 325.56 542.55 326.08 543.69 326.38L543.7 326.37Z" fill="#BC1E2D"/>
<path d="M309.27 544.41C309.81 543.59 309.93 542.92 310.43 542.79C310.9 542.67 311.8 542.94 312.44 543.37C312.9 543.68 313.58 544.77 313.53 545.09C313.44 545.59 312.92 546.04 312.36 545.93C311.57 545.78 310.59 545.09 309.26 544.41H309.27Z" fill="#BC1E2D"/>
<path d="M516.41 416.69C518.97 419.25 521.54 421.82 524.1 424.38C524 424.49 523.91 424.6 523.81 424.7C521.09 422.31 518.59 419.66 515.97 417.14C516.12 416.99 516.27 416.84 516.41 416.68V416.69Z" fill="#BC1E2D"/>
<path d="M330.27 435.62C329.82 436.41 329.45 437.04 329.1 437.66C326.96 436.12 326.44 435.43 326.65 434.51C326.84 433.67 328.11 433.99 330.27 435.63V435.62Z" fill="#BC1E2D"/>
<path d="M439.49 250.17C439.12 249.42 438.5 248.61 438.56 248.22C438.69 247.4 439.21 246.8 440.44 247.29C440.82 247.44 441.65 248.25 441.63 248.31C441.45 248.97 441.23 249.61 440.84 250.09C440.66 250.3 440.09 250.14 439.49 250.16V250.17Z" fill="#BC1E2D"/>
<path d="M287.44 351.16C290.57 354.01 293.7 356.86 296.84 359.7C296.74 359.84 296.64 359.98 296.54 360.12C293.38 357.32 290.23 354.53 287.07 351.73C287.19 351.54 287.32 351.35 287.44 351.15V351.16Z" fill="#BC1E2D"/>
<path d="M621.16 519.34C617.95 517.87 617 516.9 616.33 514.4C617.47 515.087 619.08 516.734 621.16 519.34Z" fill="#BC1E2D"/>
<path d="M194.23 478.28C192.03 478.82 191.35 475.75 189.74 475.57C189.65 475.38 189.56 475.19 189.46 474.99C190.06 474.81 190.58 474.28 191.26 474.53C193.24 475.24 192.86 476.98 194.22 478.28H194.23Z" fill="#BC1E2D"/>
<path d="M296.9 347.77C299.34 350.16 301.89 352.47 303.6 355.43C302.43 354.26 301.24 353.12 300.11 351.92C298.9 350.65 297.75 349.33 296.57 348.04C296.68 347.95 296.79 347.86 296.9 347.77Z" fill="#BC1E2D"/>
<path d="M692.381 593.62C690.301 591.76 687.751 590.2 686.311 587.12C689.041 589.14 690.451 591.6 692.381 593.62Z" fill="#BC1E2D"/>
<path d="M319.8 374.81C321.68 376.48 323.57 378.15 325.79 380.12C323.16 379.34 322.71 378.95 319.8 374.81Z" fill="#BC1E2D"/>
<path d="M59.8804 109.11C58.0904 107.68 56.3004 106.22 55.1904 103.84C57.6604 105.28 58.9704 107.04 59.8804 109.11Z" fill="#BC1E2D"/>
<path d="M377.51 447.09C377.63 447.85 377.75 448.61 377.91 449.63C376.73 448.86 375.55 449.37 374.9 447.5C374.49 446.34 375.19 446.25 377.51 447.08V447.09Z" fill="#BC1E2D"/>
<path d="M426.97 285.61C424.79 283.15 425.12 282.33 427.75 282.68C428.82 284.54 427.63 284.77 426.97 285.61Z" fill="#BC1E2D"/>
<path d="M630.19 529.6C631.98 530.45 633.36 531.74 634.71 533.85C632.37 532.85 631.08 531.47 630.19 529.6Z" fill="#BC1E2D"/>
<path d="M242.11 464.92C241.09 463.11 241.82 462.77 243.12 462.83C244.47 465.38 244.46 465.39 242.11 464.92Z" fill="#BC1E2D"/>
<path d="M599.85 499.29C599.07 498.46 598.23 497.67 597.53 496.8C597.29 496.5 597.39 496.03 597.33 495.63C597.83 495.88 598.55 496.06 598.8 496.4C599.43 497.27 599.86 498.2 600.36 499.11C600.19 499.17 600.02 499.23 599.85 499.29Z" fill="#BC1E2D"/>
<path d="M371.12 446.88C371.98 447.98 372.67 448.86 373.56 450C372.53 449.78 371.69 449.6 370.78 449.41C369.6 447.79 370.5 447.53 371.12 446.88Z" fill="#BC1E2D"/>
<path d="M426.23 305.51C427.02 306.87 427.3 307.89 426.09 307.97C425.72 307.99 425.11 307.59 424.61 307.38C424.62 306.94 424.46 306.32 424.69 306.1C425.04 305.77 425.66 305.71 426.23 305.52V305.51Z" fill="#BC1E2D"/>
<path d="M340.43 532.47C339.63 531.61 338.85 530.75 337.95 529.78C338.99 529.39 339.87 529.82 340.69 530.83C341.42 531.72 341.19 532.18 340.42 532.47H340.43Z" fill="#BC1E2D"/>
<path d="M534.64 288.77C534.58 288.14 534.52 287.52 534.45 286.79C535.13 286.94 535.79 287.08 536.45 287.22C536.59 287.41 536.72 287.59 536.86 287.78C536.27 288.24 535.68 288.71 535.09 289.17C534.94 289.04 534.79 288.9 534.64 288.77Z" fill="#BC1E2D"/>
<path d="M625.24 523.73C626.13 524.62 627.02 525.51 628.38 526.87C626.5 526.23 625.31 525.73 624.84 524.1C624.97 523.98 625.11 523.86 625.24 523.73Z" fill="#BC1E2D"/>
<path d="M407.08 465.47C408.22 466.53 409.33 467.56 410.44 468.6C410.34 468.74 410.25 468.87 410.15 469.01C408.84 468.33 407.81 467.15 406.82 465.92C406.78 465.87 406.92 465.75 407.08 465.47Z" fill="#BC1E2D"/>
<path d="M338.35 399.63L335.57 396.85C336.98 397.2 337.95 398.1 338.35 399.63Z" fill="#BC1E2D"/>
<path d="M721.5 690.5C720.45 691.91 720.2 691.82 718.18 689.29C719.39 689.73 720.32 690.07 721.5 690.5Z" fill="#BC1E2D"/>
<path d="M723.52 674.55C724.34 675.42 725.17 676.28 725.99 677.15L725.63 677.48C724.79 676.64 723.95 675.8 723.1 674.95C723.24 674.81 723.38 674.68 723.52 674.54V674.55Z" fill="#BC1E2D"/>
<path d="M719.04 670.59C717.38 670.16 716.61 669.46 716.11 668.1C717.4 668.27 718.08 669.11 719.04 670.59Z" fill="#BC1E2D"/>
<path d="M298.59 380.27C300.49 381 300.39 382.06 300.43 382.87C300.44 383.16 299.67 383.06 299.12 383.16C298.92 382.04 298.77 381.26 298.59 380.27Z" fill="#BC1E2D"/>
<path d="M442.04 301.71C442.31 300.92 442.66 300.44 443.77 301.29C444.02 301.48 444.29 302.25 444.2 302.49C443.87 303.37 443.03 302.66 442.03 301.71H442.04Z" fill="#BC1E2D"/>
<path d="M293.55 401.77C294.02 401.43 294.48 401.08 295.07 400.66C295.597 402.007 295.28 402.6 294.12 402.44C293.93 402.22 293.74 401.99 293.55 401.77Z" fill="#BC1E2D"/>
<path d="M317.271 409.86C318.541 412.3 316.851 411.51 316.001 411.8C314.841 409.49 316.741 410.49 317.271 409.86Z" fill="#BC1E2D"/>
<path d="M528.021 428.38C529.731 428.98 530.37 429.93 530.76 431.19C530.37 430.86 529.94 430.56 529.59 430.19C529.14 429.73 528.741 429.22 528.021 428.38Z" fill="#BC1E2D"/>
<path d="M567.14 389.44C567.7 389.3 568.26 389.17 569.28 388.92C569.11 390.33 568.88 390.92 567.81 390.45C567.59 390.11 567.36 389.77 567.14 389.43V389.44Z" fill="#BC1E2D"/>
<path d="M479.701 528.23C480.471 529 481.251 529.78 482.021 530.55C481.931 530.67 481.841 530.79 481.751 530.91C480.941 530.2 480.121 529.49 479.311 528.78C479.441 528.6 479.571 528.41 479.691 528.23H479.701Z" fill="#BC1E2D"/>
<path d="M280.74 344.29C281.62 345.06 282.5 345.83 283.84 347C281.95 346.79 281.22 345.61 280.37 344.7C280.49 344.56 280.62 344.43 280.74 344.29Z" fill="#BC1E2D"/>
<path d="M396.35 476.82C395.484 475.593 395.577 474.903 396.63 474.75C396.54 475.43 396.47 475.97 396.35 476.82Z" fill="#BC1E2D"/>
<path d="M562.2 281.38C562.73 281.11 563.26 280.85 563.82 280.62C563.83 280.62 564.41 281.3 564.4 281.32C563.97 281.69 563.49 282.02 563.02 282.36C562.75 282.03 562.48 281.71 562.2 281.38Z" fill="#BC1E2D"/>
<path d="M705.82 651.82C707.1 651.34 707.86 652.56 708.94 654.05C707.48 653.63 706.64 652.67 705.8 651.72L705.82 651.82Z" fill="#BC1E2D"/>
<path d="M682.7 583.66C681.81 582.77 681.09 582.05 680.19 581.16C681.124 581.707 681.96 582.54 682.7 583.66Z" fill="#BC1E2D"/>
<path d="M579 480.51C579.6 481.08 580.2 481.65 580.81 482.21C580.76 482.3 580.7 482.38 580.65 482.47C580.02 481.96 579.39 481.46 578.75 480.95C578.83 480.8 578.92 480.65 579 480.5V480.51Z" fill="#BC1E2D"/>
<path d="M253.45 504.2C254.19 504.44 254.69 504.46 254.98 504.74C255.3 505.03 255.43 505.56 255.64 505.99C255.25 505.92 254.81 505.99 254.48 505.74C254.15 505.5 253.93 504.95 253.45 504.2Z" fill="#BC1E2D"/>
<path d="M550.67 593.39C551.58 593.16 552.26 593.4 552.95 594.81C552.05 595.02 551.42 594.43 550.67 593.39Z" fill="#BC1E2D"/>
<path d="M486.85 236.32C487.35 237.37 487.44 238.03 486.46 237.94C486.3 237.92 485.83 237.51 485.75 237.33C485.3 236.23 485.84 236.09 486.84 236.33L486.85 236.32Z" fill="#BC1E2D"/>
<path d="M348.88 526.97C348.673 527.557 348.06 527.547 347.04 526.94C347.78 526.95 348.33 526.96 348.88 526.97Z" fill="#BC1E2D"/>
<path d="M717.14 661.74L715.43 660.03C715.52 659.94 715.6 659.84 715.69 659.75C716.26 660.3 716.84 660.84 717.41 661.39C717.32 661.51 717.23 661.63 717.14 661.75V661.74Z" fill="#BC1E2D"/>
<path d="M533.79 318.05C535.077 318.604 535.737 319.447 535.77 320.58C535.08 319.7 534.46 318.91 533.79 318.05Z" fill="#BC1E2D"/>
<path d="M455.05 502.76C455.59 503.23 456.13 503.7 456.67 504.17C456.66 504.28 456.64 504.39 456.63 504.51C456.28 504.35 455.901 504.26 455.581 504.01C455.261 503.76 455.01 503.36 454.73 503.03C454.84 502.94 454.94 502.85 455.05 502.76Z" fill="#BC1E2D"/>
<path d="M470.44 198.98C472.26 200.51 471.98 201.06 470.88 201.44C470.72 200.54 470.59 199.82 470.44 198.98Z" fill="#BC1E2D"/>
<path d="M540.08 241.3C540.52 240.94 540.7 240.63 541.05 240.58C541.24 240.55 541.7 240.98 542.04 241.2C541.9 241.43 541.85 241.81 541.59 241.86C541.35 241.91 540.88 241.61 540.08 241.29V241.3Z" fill="#BC1E2D"/>
<path d="M419.29 281.1C420.01 281.52 420.47 281.73 420.85 282.05C420.96 282.15 421 282.81 420.85 282.82C420.6 282.84 420.09 282.61 419.82 282.35C419.59 282.14 419.54 281.71 419.3 281.1H419.29Z" fill="#BC1E2D"/>
<path d="M364.53 424.86C363.93 424.29 363.33 423.72 362.73 423.15C362.82 423.04 362.9 422.93 362.99 422.82C363.6 423.38 364.21 423.93 364.83 424.49C364.73 424.61 364.63 424.74 364.54 424.86H364.53Z" fill="#BC1E2D"/>
<path d="M693.98 638.55C694.48 638.97 694.97 639.39 695.47 639.81C695.42 639.93 695.37 640.06 695.32 640.18C694.77 639.75 694.22 639.33 693.67 638.91C693.78 638.79 693.88 638.67 693.99 638.55H693.98Z" fill="#BC1E2D"/>
<path d="M473.92 535.62C474.31 536.07 474.71 536.52 475.11 536.98C475.03 537.05 474.95 537.13 474.87 537.2L473.55 535.88C473.67 535.8 473.8 535.71 473.92 535.62Z" fill="#BC1E2D"/>
<path d="M139.42 202.01C138.97 201.54 138.53 201.07 138.08 200.6C138.16 200.5 138.24 200.4 138.33 200.3C138.82 200.75 139.32 201.21 139.81 201.66C139.68 201.78 139.55 201.89 139.42 202.01Z" fill="#BC1E2D"/>
<path d="M720.32 664.18L722.11 665.97C722.05 666.05 721.98 666.13 721.92 666.21C721.31 665.66 720.7 665.12 720.09 664.57C720.17 664.44 720.24 664.31 720.32 664.18Z" fill="#BC1E2D"/>
<path d="M388.61 496.36C389.91 497.187 390.45 497.977 390.23 498.73C389.73 498 389.33 497.41 388.61 496.36Z" fill="#BC1E2D"/>
<path d="M708.23 697.4C708.76 697.88 709.29 698.37 709.82 698.85C709.79 698.95 709.77 699.06 709.74 699.16C709.36 698.95 708.94 698.81 708.62 698.52C708.35 698.28 708.19 697.87 707.99 697.54C708.07 697.49 708.15 697.45 708.23 697.4Z" fill="#BC1E2D"/>
<path d="M359.3 424.49C359.7 424.86 360.09 425.22 360.49 425.59C360.42 425.68 360.36 425.77 360.29 425.86C359.89 425.5 359.49 425.13 359.1 424.77C359.17 424.68 359.24 424.59 359.31 424.5L359.3 424.49Z" fill="#BC1E2D"/>
<path d="M663.35 578.55C664.18 579.15 665.01 579.74 665.84 580.34C665.74 580.51 665.63 580.67 665.53 580.84C664.8 580.06 664.06 579.28 663.32 578.5C663.32 578.49 663.35 578.56 663.35 578.56V578.55Z" fill="#BC1E2D"/>
<path d="M561.52 461.39C561.5 461.21 561.49 461 561.47 460.79C561.65 460.91 561.91 461.03 561.99 461.17C562.11 461.38 562.11 461.6 562.17 461.82C561.99 461.7 561.82 461.58 561.53 461.39H561.52Z" fill="#BC1E2D"/>
<path d="M234.56 301.69C234.94 301.96 235.32 302.23 235.69 302.5C235.63 302.65 235.56 302.79 235.5 302.93C235.14 302.62 234.78 302.31 234.42 301.99C234.47 301.89 234.51 301.79 234.56 301.68V301.69Z" fill="#BC1E2D"/>
<path d="M700.42 639.16C700.92 639.54 701.42 639.92 701.92 640.3C701.87 640.42 701.82 640.54 701.77 640.66C701.27 640.26 700.78 639.86 700.28 639.46C700.32 639.36 700.37 639.26 700.41 639.16H700.42Z" fill="#BC1E2D"/>
<path d="M357.23 440.65C357.44 441.61 357.56 442.18 357.7 442.86C356.16 441.82 355.86 441.19 357.23 440.65Z" fill="#BC1E2D"/>
<path d="M711.09 655.69C711.51 656.15 711.92 656.61 712.34 657.08C712.24 657.15 712.13 657.22 712.03 657.29C711.6 656.83 711.18 656.37 710.75 655.91C710.86 655.84 710.98 655.77 711.09 655.7V655.69Z" fill="#BC1E2D"/>
<path d="M588.94 300.05C589.49 300.24 589.84 300.26 590.08 300.46C590.35 300.68 590.52 301.08 590.74 301.4C590.38 301.37 590.03 301.43 589.65 301.27C589.5 301.21 589.28 300.65 588.94 300.05Z" fill="#BC1E2D"/>
<path d="M482.58 383.01C483.43 384.07 483.83 384.55 484.29 385.13C483.457 384.924 482.887 384.217 482.58 383.01Z" fill="#BC1E2D"/>
<path d="M370.84 459.61C371.95 460.4 372.62 460.88 373.73 461.67C372.36 461.71 371.57 461.59 370.84 459.61Z" fill="#BC1E2D"/>
<path d="M457.29 277.98C457.77 278.16 458.3 278.23 458.72 278.56C459.29 279.01 458.87 279.42 458.14 279.01C457.88 278.86 457.63 278.65 457.37 278.46C457.34 278.3 457.31 278.14 457.29 277.98Z" fill="#BC1E2D"/>
<path d="M523.23 565.95C523.21 566.18 523.28 566.59 523.16 566.58C522.92 566.56 522.55 566.36 522.27 566.14C522.16 566.06 522.17 565.72 522.13 565.5C522.38 565.6 522.63 565.7 523.23 565.95Z" fill="#BC1E2D"/>
<path d="M670.04 581.48C670.15 581.83 670.22 582.04 670.28 582.26C670.05 582.17 669.81 582.12 669.6 581.98C669.49 581.91 669.33 581.52 669.36 581.51C669.52 581.46 669.74 581.48 670.04 581.48Z" fill="#BC1E2D"/>
<path d="M284.05 332.34C284.26 332.73 284.41 333 284.56 333.28C284.32 333.23 284.03 333.27 283.86 333.12C283.65 332.94 283.52 332.6 283.36 332.33C283.57 332.33 283.78 332.34 284.05 332.35V332.34Z" fill="#BC1E2D"/>
<path d="M170.271 239.74C170.441 239.81 170.63 239.85 170.76 239.97C170.87 240.07 170.91 240.27 170.98 240.42C170.81 240.35 170.621 240.31 170.491 240.19C170.381 240.09 170.341 239.89 170.271 239.74Z" fill="#BC1E2D"/>
<path d="M561.66 319.67C561.35 319.61 561.11 319.57 560.87 319.52C560.76 319.2 560.65 318.87 560.54 318.55C560.79 318.62 561.1 318.63 561.25 318.79C561.44 318.99 561.5 319.31 561.66 319.67Z" fill="#BC1E2D"/>
<path d="M44.7605 0.910156C44.9205 1.30016 45.0205 1.55016 45.1205 1.80016C44.8905 1.71016 44.6404 1.67016 44.4204 1.53016C44.3004 1.45016 44.1105 1.06016 44.1505 1.03016C44.2605 0.940156 44.4804 0.960156 44.7504 0.920156L44.7605 0.910156Z" fill="#BC1E2D"/>
<path d="M170.281 193.46C169.461 192.77 168.641 192.08 167.811 191.39C167.861 191.27 167.911 191.14 167.961 191.02C168.781 191.65 169.601 192.28 170.421 192.91C170.371 193.09 170.321 193.28 170.271 193.46H170.281Z" fill="#BC1E2D"/>
</svg>
