<svg width="72" height="72" viewBox="0 0 72 72" fill="none" xmlns="http://www.w3.org/2000/svg">
<path fill-rule="evenodd" clip-rule="evenodd" d="M51.3774 37.6331C47.3681 39.2564 43.0404 40.2576 38.514 40.5171C37.7334 40.5618 36.9468 40.5845 36.155 40.5845C35.3632 40.5845 34.5766 40.5618 33.796 40.5171C29.2685 40.2576 24.9399 39.256 20.9298 37.632C12.5144 34.2239 5.50206 28.075 1 20.2922C8.01725 8.16151 21.133 0 36.155 0C51.177 0 64.2928 8.16151 71.31 20.2922C66.8074 28.0758 59.7941 34.2253 51.3774 37.6331Z" fill="#BC1E2D"/>
<path d="M20.9292 40.791C19.9597 40.3984 19.0089 39.9694 18.0783 39.5057C15.0541 41.6361 12.4976 44.2894 10.5725 47.3166C13.8446 52.462 18.9412 56.5272 25.0575 58.7804C27.972 59.8541 31.1181 60.5163 34.4087 60.6878H37.8377C41.1275 60.5163 46.9098 63.7755 38.5134 72.0003C44.6307 69.7473 58.4014 52.4626 61.6739 47.3166C59.7543 44.298 57.2068 41.6512 54.1939 39.524C53.2741 39.9811 52.3346 40.4044 51.3768 40.7922C47.3675 42.4155 43.0398 43.4167 38.5134 43.6761C37.7328 43.7209 36.9462 43.7435 36.1544 43.7435C35.3626 43.7435 34.5761 43.7209 33.7954 43.6761C29.2679 43.4166 24.9393 42.415 20.9292 40.791Z" fill="#BC1E2D"/>
<rect x="19.2031" y="15.1013" width="33.9777" height="12.1349" rx="6.06745" fill="#162550"/>
<ellipse cx="45.5619" cy="21.1014" rx="2.22473" ry="2.22473" fill="#04FED1"/>
<ellipse cx="36.1232" cy="51.0339" rx="2.22473" ry="2.22473" fill="#162550"/>
<ellipse cx="27.2257" cy="21.1014" rx="2.22473" ry="2.22473" fill="#04FED1"/>
<ellipse cx="27.2257" cy="51.0339" rx="2.22473" ry="2.22473" fill="#162550"/>
<ellipse cx="45.0233" cy="51.0339" rx="2.22473" ry="2.22473" fill="#162550"/>
</svg>
